<?xml version="1.0" standalone="no"?>
<!DOCTYPE svg PUBLIC "-//W3C//DTD SVG 1.1//EN" "http://www.w3.org/Graphics/SVG/1.1/DTD/svg11.dtd" >
<svg xmlns="http://www.w3.org/2000/svg">
<metadata>
Created by FontPrep 20130207 at Thu Sep 19 15:45:21 2013
 By Armin Polecsak
Copyright (c) 2012 by Armin Polecsak. All rights reserved.
</metadata>
<defs>
<font id="18433bfd059a7357bcf778bf4763eace" horiz-adv-x='1024' >
  <font-face 
    font-family="eSolrIconSquare-Regular"
    font-weight="400"
    font-stretch="normal"
    units-per-em="2048"
    panose-1="0 0 5 0 0 0 0 0 0 0"
    ascent="2048"
    descent="0"
    x-height="1352"
    cap-height="1505"
    bbox="-16 -256 2103 2685"
    underline-thickness="102"
    underline-position="-102"
    unicode-range="U+0020-2C73"
  />
<missing-glyph horiz-adv-x="1024" 
d="M102 1239v-1044l349 522zM164 102h696l-348 523zM573 717l349 -522v1044zM512 809l348 522h-696zM0 0v1434h1024v-1434h-1024z" />
    <glyph glyph-name=".notdef" horiz-adv-x="1024" 
d="M102 1239v-1044l349 522zM164 102h696l-348 523zM573 717l349 -522v1044zM512 809l348 522h-696zM0 0v1434h1024v-1434h-1024z" />
    <glyph glyph-name=".null" horiz-adv-x="0" 
 />
    <glyph glyph-name="nonmarkingreturn" horiz-adv-x="681" 
 />
    <glyph glyph-name="space" unicode=" " horiz-adv-x="2048" 
 />
    <glyph glyph-name="exclam" unicode="!" horiz-adv-x="2048" 
d="M1104 700v-159h-160v159h160zM1104 1260v-441h-160v441h160zM399 381h1250q67 0 93 49t-5 102l-625 1080q-31 53 -88 53t-88 -53l-625 -1080q-31 -53 -5 -102t93 -49zM1671 219h-1294q-155 0 -221 114t12 247l647 1136q72 131 209 131t209 -131l647 -1136
q78 -133 12 -247t-221 -114z" />
    <glyph glyph-name="quotedbl" unicode="&#x22;" horiz-adv-x="2048" 
 />
    <glyph glyph-name="numbersign" unicode="#" horiz-adv-x="2048" 
d="M1624 1145h-80q-53 0 -87 -34t-34 -87t34 -87t87 -34h80q53 0 87 34t34 87t-34 87t-87 34zM504 1145h-80q-53 0 -87 -34t-34 -87t34 -87t87 -34h80q53 0 87 34t34 87t-34 87t-87 34zM1624 823h-80q-86 -1 -143 55t-58 146t57 145t144 56h80q86 1 143 -55t57 -146
t-56 -146q-58 -56 -144 -55zM504 823h-80q-86 -1 -143 55t-58 146t57 145t144 56h80q86 1 143 -55t57 -146t-56 -146q-58 -56 -144 -55zM1737 1384h-305q-109 0 -179 -70t-69 -177v-226q0 -109 70 -179t178 -68h305q106 0 177 70t71 177v226q0 109 -71 178t-177 69z
M616 1384h-305q-106 0 -177 -70t-71 -177v-226q0 -109 71 -179t177 -68h305q109 0 179 70t69 177v226q0 109 -69 178q-70 69 -179 69zM1104 903v242q0 137 91 228t228 91h322q137 0 228 -91t91 -228v-242q0 -137 -91 -228t-228 -91h-322q-137 0 -228 91t-91 228zM-16 903
v242q0 137 91 228t228 91h322q137 0 228 -91t91 -228v-242q0 -137 -91 -228t-228 -91h-322q-137 0 -228 91t-91 228z" />
    <glyph glyph-name="percent" unicode="%" horiz-adv-x="0" 
 />
    <glyph glyph-name="quotesingle" unicode="'" horiz-adv-x="2048" 
 />
    <glyph glyph-name="parenleft" unicode="(" horiz-adv-x="2048" 
 />
    <glyph glyph-name="parenright" unicode=")" horiz-adv-x="2048" 
 />
    <glyph glyph-name="asterisk" unicode="*" horiz-adv-x="2048" 
 />
    <glyph glyph-name="plus" unicode="+" horiz-adv-x="2048" 
d="M1583 944h-479v-479h-160v479h-479v160h479v479h160v-479h479v-160z" />
    <glyph glyph-name="comma" unicode="," horiz-adv-x="2048" 
 />
    <glyph glyph-name="hyphen" unicode="-" horiz-adv-x="2048" 
d="M465 1104h1118v-160h-1118v160z" />
    <glyph glyph-name="period" unicode="." horiz-adv-x="2048" 
d="M1024 223q-330 0 -566 236q-236 235 -235 565q0 330 236 566q235 236 565 235q330 0 566 -236q236 -235 235 -565q1 -330 -235 -566t-566 -235z" />
    <glyph glyph-name="slash" unicode="/" horiz-adv-x="2048" 
d="M465 -256h-80v160h80v-160zM465 -96v159h80v-159h-80zM545 63v160h80v-160h-80zM625 223v162h80v-162h-80zM705 385v160h79v-160h-79zM784 545v160h80v-160h-80zM864 705v159h80v-159h-80zM944 864v160h80v-160h-80zM1024 1024v160h80v-160h-80zM1104 1184v159h80v-159
h-80zM1184 1343v160h80v-160h-80zM1264 1503v162h79v-162h-79zM1343 1665v160h80v-160h-80zM1423 1825v160h80v-160h-80zM1503 1985v159h80v-159h-80zM1583 2144v160h82v-160h-82z" />
    <glyph glyph-name="zero" unicode="0" horiz-adv-x="800" 
 />
    <glyph glyph-name="one" unicode="1" horiz-adv-x="79" 
 />
    <glyph glyph-name="two" unicode="2" horiz-adv-x="159" 
 />
    <glyph glyph-name="three" unicode="3" horiz-adv-x="239" 
 />
    <glyph glyph-name="four" unicode="4" horiz-adv-x="319" 
 />
    <glyph glyph-name="five" unicode="5" horiz-adv-x="399" 
 />
    <glyph glyph-name="six" unicode="6" horiz-adv-x="479" 
 />
    <glyph glyph-name="seven" unicode="7" horiz-adv-x="559" 
 />
    <glyph glyph-name="eight" unicode="8" horiz-adv-x="641" 
 />
    <glyph glyph-name="nine" unicode="9" horiz-adv-x="720" 
 />
    <glyph glyph-name="colon" unicode=":" horiz-adv-x="2048" 
d="M1024 385q264 0 453 187q188 188 188 452t-188 452q-189 188 -453 189q-264 0 -452 -188q-188 -189 -187 -453q0 -264 187 -452q188 -187 452 -187zM1024 223q-330 0 -566 236q-236 235 -235 565q0 330 236 566q235 236 565 235q330 0 566 -236q236 -235 235 -565
q1 -330 -235 -566t-566 -235z" />
    <glyph glyph-name="semicolon" unicode=";" horiz-adv-x="2048" 
 />
    <glyph glyph-name="less" unicode="&#x3c;" horiz-adv-x="2048" 
d="M545 1020l1071 -1071l-55 -58l-1129 1137l1129 1129l55 -58z" />
    <glyph glyph-name="equal" unicode="=" horiz-adv-x="2048" 
d="M465 784h1118v-159h-1118v159zM465 1104h1118v-160h-1118v160zM465 1423h1118v-159h-1118v159z" />
    <glyph glyph-name="greater" unicode="&#x3e;" horiz-adv-x="2048" 
d="M487 2157l1129 -1129l-1129 -1137l-55 58l1071 1071l-1071 1079z" />
    <glyph glyph-name="question" unicode="?" horiz-adv-x="2048" 
d="M1024 1825q330 0 566 -236q236 -235 235 -565q0 -330 -236 -566q-235 -236 -565 -235q-330 0 -566 236t-235 565h242q0 -229 164 -394t395 -165t395 165t164 396t-163 394t-396 163v-319l-479 401l479 479v-319z" />
    <glyph glyph-name="A" unicode="A" horiz-adv-x="2048" 
d="M1704 580v641q0 47 -16 63t-64 16h-1057l150 150l-62 90h-311v-960q0 -48 16 -64t64 -16h1200q47 0 64 16q16 17 16 64zM1704 1460q84 0 122 -38t38 -122v-800q0 -84 -38 -122t-122 -38h-1360q-84 0 -122 38t-38 122v1200h559l160 -240h801z" />
    <glyph glyph-name="B" unicode="B" horiz-adv-x="2048" 
d="M223 520v639h1082l118 162h-1200v160h1602l-361 -482l361 -479h-1602z" />
    <glyph glyph-name="C" unicode="C" horiz-adv-x="2048" 
d="M1340 399q48 1 84 -35t36 -84t-36 -84t-84 -36t-84 36t-36 84t36 84q36 35 84 35zM1020 399q47 1 84 -35t37 -84t-37 -84t-84 -36t-84 36t-37 84t37 84t84 35zM700 399q47 1 83 -35t36 -84t-36 -84t-83 -36t-84 36q-36 36 -36 84t36 84q37 35 84 35zM1340 721
q48 0 84 -37t36 -84t-36 -84t-84 -37t-84 37t-35 84q0 47 35 84q36 37 84 37zM1020 721q47 0 84 -37t37 -84t-37 -84t-84 -37t-84 37t-37 84t37 84t84 37zM700 721q47 0 83 -37t36 -84t-36 -84t-83 -37t-84 37t-36 84q0 47 36 84q37 37 84 37zM1340 1040q48 0 84 -36t36 -84
q0 -47 -36 -83t-84 -36t-84 36t-35 83q0 47 35 84q36 36 84 36zM1020 1040q47 0 84 -36t37 -84q0 -47 -37 -83t-84 -36t-84 36t-37 83q0 48 37 84t84 36zM700 1040q47 0 83 -36t36 -84q0 -47 -36 -83t-83 -36t-84 36t-36 83q0 47 36 84q37 36 84 36zM-4 1338q0 157 182 316
t481 228q170 39 362 39q191 0 363 -39q304 -69 486 -228t182 -294q0 -104 -52 -178t-157 -150l-350 273l-41 278q-203 74 -428 74t-428 -74l-41 -278l-350 -273q-104 76 -157 150q-52 74 -52 156z" />
    <glyph glyph-name="D" unicode="D" horiz-adv-x="2048" 
d="M1321 1104v-529h88v-96h-297v96h96v394l-96 -58l-47 50l143 143h113zM625 664h102q0 -96 96 -97q45 0 75 26t30 70q0 45 -32 71t-81 26h-55v88h63q88 0 88 104q0 31 -21 52q-22 20 -62 20t-66 -25t-27 -71h-102q0 193 190 192q85 0 143 -47t58 -112q0 -106 -55 -152
q55 -47 55 -137q0 -201 -200 -201t-199 193zM1688 1327h-1328v-1071h1063l265 264v807zM1503 1817h41v-240h-41v240zM1024 1817h41v-240h-41v240zM545 1817h39v-240h-39v240zM1423 1833v-305q-1 -18 15 -32t35 -15h63q18 0 33 14q14 14 14 33v305q0 15 -14 31t-33 16h-63
q-18 0 -34 -16t-16 -31zM944 1833v-305q0 -18 15 -32t32 -15h66q16 0 32 14q15 14 15 33v305q0 15 -15 31t-32 16h-66q-16 0 -32 -15q-15 -16 -15 -32zM465 1833v-305q0 -18 14 -32t33 -15h63q18 0 34 14q15 14 16 33v305q1 15 -15 31t-35 16h-63q-18 0 -33 -15
q-14 -16 -14 -32zM1825 1640v-1519h-1602v1519h162v224q0 44 27 70t67 26h129q41 0 69 -27t28 -69v-224h159v224q0 44 27 70t70 26h126q43 0 70 -27t27 -69v-224h159v224q0 44 28 70t69 26h129q41 0 69 -27t27 -69v-224h160z" />
    <glyph glyph-name="E" unicode="E" horiz-adv-x="2048" 
d="M1745 608v815l-721 -630l-721 630v-815l344 344l66 -55l-353 -352h1328l-353 352l66 55zM1024 911l674 592h-1348zM1825 1583v-1118h-1602v1118h1602z" />
    <glyph glyph-name="F" unicode="F" horiz-adv-x="2048" 
d="M1024 0q-209 0 -398 81q-383 164 -545 545q-81 189 -81 398t81 398q164 383 545 545q189 81 398 81t398 -81q383 -164 545 -545q81 -189 81 -398t-81 -398q-164 -383 -545 -545q-189 -81 -398 -81z" />
    <glyph glyph-name="G" unicode="G" horiz-adv-x="2048" 
d="M743 1334q0 -116 81 -196t197 -81q116 0 200 80q84 81 84 197t-85 199t-199 83t-196 -83t-82 -199zM465 1327q0 242 160 402q159 159 399 159t400 -160t159 -401q0 -180 -129 -361q-164 -230 -240 -356q-159 -266 -190 -610q-18 207 -82 383q-63 176 -142 292t-156 218
q-179 237 -179 434z" />
    <glyph glyph-name="H" unicode="H" horiz-adv-x="2048" 
d="M1503 1040v-561h-319v641h-320v-641h-319v561h-322l801 719l801 -719h-322z" />
    <glyph glyph-name="I" unicode="I" horiz-adv-x="2048" 
d="M1065 1704v-1360h-82v1360h82z" />
    <glyph glyph-name="J" unicode="J" horiz-adv-x="2048" 
d="M784 504h480v-80h-480v80zM784 743h480v-79h-480v79zM625 264h798v639h-798v-639zM545 983h958v-799h-958v799zM1583 1264h-80v-80h80v80zM1423 1264h-80v-80h80v80zM1423 1384v400h-798v-400h798zM1905 1384v-800h-322v481h-1118v-481h-322v800h402v480h958v-480h402z
" />
    <glyph glyph-name="K" unicode="K" horiz-adv-x="2048" 
d="M545 1665v-1280h80v1280h-80zM1665 223h-1280v1602h479v-801l240 248l239 -248v801h322v-1602z" />
    <glyph glyph-name="L" unicode="L" horiz-adv-x="2048" 
d="M1141 987l71 -72l-344 -344l-71 72zM981 1149l72 -74l-344 -344l-72 74zM868 412l504 503l-391 394l-506 -504zM1462 1300q-34 0 -58 25t-24 57t24 56q24 22 58 22t56 -22t22 -57q0 -33 -22 -57t-56 -24zM1460 1221q66 0 113 47q47 46 47 112t-47 113t-113 47t-112 -47
t-48 -113q0 -66 47 -112t113 -47zM289 804q0 52 35 89l784 782q33 33 72 33h473q53 0 86 -33t33 -88v-471q0 -41 -31 -72l-785 -784q-37 -35 -89 -35t-87 35l-456 457q-35 35 -35 87z" />
    <glyph glyph-name="M" unicode="M" horiz-adv-x="2048" 
d="M1679 760l-270 104q-78 -168 -225 -217l104 -262q287 109 391 375zM760 385l104 262q-170 80 -217 217l-256 -104q45 -131 139 -230q95 -98 230 -145zM1026 705q129 0 223 96t94 225t-94 223t-223 94t-225 -94t-96 -223t96 -225t225 -96zM1288 1671l-104 -262
q162 -76 225 -225l256 104q-51 133 -147 236q-97 102 -230 147zM864 1409l-104 262q-287 -123 -369 -383l256 -104q78 166 217 225zM1024 223q-330 0 -566 236q-236 235 -235 565q0 330 236 566q235 236 565 235q330 0 566 -236q236 -235 235 -565q1 -330 -235 -566
t-566 -235z" />
    <glyph glyph-name="N" unicode="N" horiz-adv-x="2048" 
d="M1264 827v-79h-480v79h480zM1264 1067v-80h-480v80h480zM1264 1309v-80h-480v80h480zM545 428h958v961h-239v239h-719v-1200zM1665 268h-1280v1520h958l322 -320v-1200z" />
    <glyph glyph-name="O" unicode="O" horiz-adv-x="2048" 
d="M1024 0q-209 0 -398 81q-383 164 -545 545q-81 189 -81 398t81 398q164 383 545 545q189 81 398 81t398 -81q383 -164 545 -545q81 -189 81 -398t-81 -398q-164 -383 -545 -545q-189 -81 -398 -81z" />
    <glyph glyph-name="P" unicode="P" horiz-adv-x="2048" 
d="M1225 1323q0 125 69 201q70 76 185 76t185 -76t71 -201q0 -61 -44 -163t-104 -179q7 -12 23 -38t25 -37q26 -32 69 -34q36 -34 148 -82t137 -65q-20 -119 -134 -254h-485l94 205l-311 137q13 6 45 21q33 15 55 38q29 0 49 16t39 52q20 37 29 47q-59 72 -102 173t-43 163z
M387 1405q0 164 92 262q91 98 235 98t236 -98t92 -262q0 -82 -56 -214t-132 -216q32 -64 59 -106q10 -13 36 -30t57 -18q47 -39 194 -103t170 -77l-145 -330q-72 -6 -121 -6l-389 6l-387 -6q-49 0 -121 6q-125 158 -148 330q31 16 175 82t190 98q32 1 56 17t35 32t33 56
t30 51q-76 84 -134 216q-57 132 -57 212z" />
    <glyph glyph-name="Q" unicode="Q" horiz-adv-x="2048" 
d="M139 500v239q0 -111 118 -201t321 -144t442 -54q362 0 621 119t260 280v-239q1 -162 -259 -281t-622 -119q-240 0 -442 54t-321 144q-118 91 -118 202zM139 899v242q0 -168 257 -285q256 -117 618 -117t621 115t266 274v-229q1 -162 -259 -281t-622 -118q-240 0 -442 53
t-321 144q-118 91 -118 202zM1901 1540v-240q-1 -164 -259 -282t-624 -119q-366 0 -622 117q-257 117 -257 284v240q0 -111 118 -202t321 -144t442 -53q365 -1 623 117t258 282zM1018 1780q-279 0 -502 -71t-319 -185v159q96 115 319 186t506 71t507 -74t314 -191v-159
q-98 116 -322 190t-503 74z" />
    <glyph glyph-name="R" unicode="R" horiz-adv-x="2048" 
d="M2048 2048v-2048h-2048v2048h2048z" />
    <glyph glyph-name="S" unicode="S" horiz-adv-x="2048" 
d="M1092 1225l88 47q42 -82 24 -166t-80 -154q-66 -59 -154 -72t-165 23l39 88q47 -29 109 -19t100 52q39 36 49 92t-10 109zM395 1200q-1 -199 141 -339t341 -140t339 140t140 339t-140 339t-340 140q-198 0 -340 -140t-141 -339zM236 1200q0 264 188 452t452 187
q264 0 452 -187q187 -187 188 -452q0 -207 -119 -371l415 -421l-167 -168l-418 426q-158 -106 -350 -107q-265 1 -453 189t-188 452z" />
    <glyph glyph-name="T" unicode="T" horiz-adv-x="2048" 
d="M705 1239l55 -719h528l55 719h-151l-25 -559h-80l25 559h-176l25 -559h-80l-25 559h-151zM696 360q-30 0 -52 20t-28 52l-71 969h958l-71 -969q-6 -31 -28 -51t-52 -21h-656zM672 1640h352q-36 0 -58 22t-22 58t23 58t57 22t58 -22q22 -22 22 -59q0 -35 -23 -57t-57 -22
h352q49 0 64 -41l63 -118h-958l63 118q14 41 64 41z" />
    <glyph glyph-name="U" unicode="U" horiz-adv-x="2048" 
d="M944 1624h160v-913l391 417l121 -104l-592 -600l-592 600l121 104l391 -417v913z" />
    <glyph glyph-name="V" unicode="V" horiz-adv-x="2048" 
d="M1024 864q-66 0 -113 47t-47 113t47 113t113 47t113 -47t47 -113t-47 -113t-113 -47zM1024 625q166 1 283 119t117 283t-116 281t-284 116t-284 -116t-116 -281t117 -284q117 -118 283 -118zM1825 928l-217 -39q-25 -98 -80 -184l129 -177l-137 -137l-177 129
q-70 -51 -184 -80l-31 -217h-208l-31 217q-115 29 -184 80l-177 -129l-137 137l129 177q-55 86 -80 184l-217 39v200l217 31q29 115 80 184l-129 177l137 137l177 -129q70 51 184 80l31 217h208l31 -217q115 -29 184 -80l177 129l137 -137l-129 -177q51 -70 80 -184l217 -31
v-200z" />
    <glyph glyph-name="W" unicode="W" horiz-adv-x="2048" 
d="M432 752l592 600l592 -600l-55 -56l-537 543l-537 -543z" />
    <glyph glyph-name="X" unicode="X" horiz-adv-x="2048" 
d="M1024 965l-537 -537l-55 55l537 537l-537 545l55 55l537 -545l537 545l55 -64l-537 -536l537 -537l-55 -55z" />
    <glyph glyph-name="Y" unicode="Y" horiz-adv-x="2048" 
 />
    <glyph glyph-name="Z" unicode="Z" horiz-adv-x="2048" 
 />
    <glyph glyph-name="bracketleft" unicode="[" horiz-adv-x="2048" 
d="M1104 1264h479v-480h-479v-399l-639 639l639 641v-401z" />
    <glyph glyph-name="backslash" unicode="\" horiz-adv-x="2048" 
d="M1554 285v-160h-79v160h79zM1475 285h-80v159h80v-159zM1395 444h-80v160h80v-160zM1315 604h-80v162h80v-162zM1235 766h-80v160h80v-160zM1155 926h-80v159h80v-159zM1075 1085h-80v160h80v-160zM995 1245h-80v160h80v-160zM915 1405h-79v160h79v-160zM836 1565h-80
v159h80v-159zM756 1724h-80v160h80v-160zM676 1884h-80v162h80v-162zM596 2046h-80v160h80v-160zM516 2206h-80v159h80v-159zM436 2365h-80v160h80v-160zM356 2525h-82v160h82v-160z" />
    <glyph glyph-name="bracketright" unicode="]" horiz-adv-x="2048" 
d="M944 784h-479v480h479v401l639 -641l-639 -639v399z" />
    <glyph glyph-name="asciicircum" unicode="^" horiz-adv-x="0" 
 />
    <glyph glyph-name="underscore" unicode="_" horiz-adv-x="2048" 
d="M2048 80v-80h-2048v80h2048z" />
    <glyph glyph-name="a" unicode="a" horiz-adv-x="2048" 
d="M1620 1401q84 0 122 -39t38 -123v-639q0 -84 -38 -122t-122 -38h-1200q-84 0 -122 38t-38 122v1040h399l160 -239h801z" />
    <glyph glyph-name="b" unicode="b" horiz-adv-x="2048" 
d="M541 1839h159v-1198l160 119v1079h639v-1599l-479 360l-479 -360v1599z" />
    <glyph glyph-name="c" unicode="c" horiz-adv-x="2048" 
d="M1290 625l400 -209q-27 -127 -71 -206t-136 -122q-139 -54 -376 55t-438 407q-73 108 -130 234q-100 213 -132 421q-31 209 -3 357t85 249t126 133q123 56 255 12q55 -18 131 -60l-104 -432l-231 -159q23 -195 112 -416q100 -205 248 -352z" />
    <glyph glyph-name="d" unicode="d" horiz-adv-x="2048" 
d="M1825 987v-639h-1602v639h180v-459h1242v459h180zM864 1309v391h320v-391h319l-479 -498l-479 498h319z" />
    <glyph glyph-name="e" unicode="e" horiz-adv-x="2048" 
d="M1411 944h-551v160h551v239l330 -319l-330 -319v239zM1180 1343h-160v160h-479v-958h479v160h160v-320h-799v1280h799v-322z" />
    <glyph glyph-name="f" unicode="f" horiz-adv-x="2048" 
d="M864 641h320v-242h239l-399 -399l-399 399h239v242zM1825 881v-80h-1602v80h1602zM1583 1280v-160h-878v160h878zM625 1280v-160h-160v160h160zM1583 1599v-159h-878v159h878zM625 1599v-159h-160v159h160zM1583 1921v-162h-878v162h878zM625 1921v-162h-160v162h160z
" />
    <glyph glyph-name="g" unicode="g" horiz-adv-x="2048" 
 />
    <glyph glyph-name="h" unicode="h" horiz-adv-x="2048" 
d="M864 625h320q0 -215 80 -322h-480q80 107 80 322zM385 864h1280v719h-1280v-719zM385 1745h1280q66 0 113 -48t47 -114v-719q0 -66 -47 -112t-113 -47h-1280q-66 0 -114 47t-48 112v719q0 66 48 114t114 48z" />
    <glyph glyph-name="i" unicode="i" horiz-adv-x="2048" 
d="M1065 1544v-1040h-82v1040h82z" />
    <glyph glyph-name="j" unicode="j" horiz-adv-x="2048" 
d="M545 1544h160v-641l159 121v520h639v-1040l-479 360l-479 -360v1040z" />
    <glyph glyph-name="k" unicode="k" horiz-adv-x="2048" 
d="M1944 303v-80h-1840v80h1840zM664 545v-160h-320v160h320zM1225 584v-199h-322v199h322zM1225 664v-39h-322v39h322zM664 1423v-798h-320v798h320zM1225 1503v-798h-322v798h322zM1225 1583v-39h-322v39h322zM664 1665v-162h-320v162h320zM1649 1688l286 -1231l-311 -72
l-281 1231zM1225 1825v-201h-322v201h322z" />
    <glyph glyph-name="l" unicode="l" horiz-adv-x="2048" 
d="M1745 1229q0 -107 -48 -199t-121 -153t-162 -127t-168 -120t-141 -132t-81 -166q-33 139 -185 260q-65 51 -139 101q-177 119 -270 216q-127 131 -127 320q0 151 88 243t206 106t241 -60t186 -226q63 150 186 224t241 62t206 -104q88 -93 88 -245z" />
    <glyph glyph-name="m" unicode="m" horiz-adv-x="2048" 
d="M1679 1180v-559h-80v-240h-79v-242h-799v242h80v-162h639v162h80v240h79v559h80zM721 381h-80v160h80v-160zM641 541h-82v159h82v-159zM559 700h-80v160h80v-160zM479 860h-80v80h80v-80zM399 940h-80v240h240v-80h-160v-160zM1599 1180h-79v80h79v-80zM1520 1260h-80
v-240h-80v319h160v-79zM1360 1339h-160v-239h-80v319h240v-80zM1120 1419h-159v-319h-80v721h80v-322h159v-80zM559 1100h82v721h80v-1041h-80v240h-82v80zM881 1821h-160v80h160v-80z" />
    <glyph glyph-name="n" unicode="n" horiz-adv-x="2048" 
d="M1679 621h-80v-240h-79v-242h-799v242h-80v160h-82v159h-80v160h-80v80h-80v240h240v-80h82v721h80v80h160v-80h80v-402h159v-80h240v-79h160v-80h79v-80h80v-479z" />
    <glyph glyph-name="o" unicode="o" horiz-adv-x="2048" 
d="M1024 864q-66 0 -113 47t-47 113t47 113t113 47t113 -47t47 -113t-47 -113t-113 -47zM1024 625q166 1 283 119t117 283t-116 281t-284 116t-284 -116t-116 -281t117 -284q117 -118 283 -118zM1024 545q-199 0 -339 140t-140 339t140 339t339 140t339 -140t140 -339
t-140 -339t-339 -140zM1024 303q299 0 510 213t211 510t-211 508t-510 211t-510 -211t-211 -508t211 -510t510 -213zM1825 1024q-1 -332 -237 -566t-569 -235q-333 1 -564 235t-232 566t231 566t565 234t569 -234t237 -566z" />
    <glyph glyph-name="p" unicode="p" horiz-adv-x="2048" 
d="M1024 1786q146 0 236 -98q92 -98 92 -265q0 -80 -56 -213t-133 -215q62 -124 108 -145q19 -8 44 -8q45 -37 189 -102t173 -81l-71 -327q-72 -6 -139 -6l-443 6l-443 -6q-67 0 -139 6l-71 327q35 20 176 85t186 98q31 0 55 16t36 32q11 16 33 56q22 39 30 51
q-76 86 -133 216t-58 210q0 167 91 265t237 98z" />
    <glyph glyph-name="q" unicode="q" horiz-adv-x="2048" 
d="M139 500v319q0 -111 118 -202t321 -144t442 -53q362 0 621 119t260 280v-319q1 -162 -259 -281t-622 -119q-240 0 -442 54t-321 144q-118 91 -118 202zM139 899v322q0 -168 257 -285q256 -117 618 -117t621 115t266 274v-309q1 -162 -259 -281t-622 -118q-240 0 -442 53
t-321 144q-118 91 -118 202zM1018 1780q-290 0 -522 -78t-318 -203q86 -123 318 -201t522 -78q291 0 522 80q231 78 320 199q-88 123 -320 202t-522 79zM1901 1620v-320q-1 -164 -259 -282t-624 -119q-366 0 -622 117q-257 117 -257 284v320q0 -12 4 -41q33 154 283 257
t592 103t593 -105t285 -255q5 29 5 41z" />
    <glyph glyph-name="r" unicode="r" horiz-adv-x="2048" 
d="M555 332q-80 0 -137 57q-58 57 -58 138t56 139t139 59q82 0 139 -58q58 -57 58 -139t-58 -139t-139 -57zM1288 420h-256q0 240 -176 412t-416 172v256q348 0 598 -246t250 -594zM440 1716q264 0 506 -103q487 -207 695 -693q103 -242 104 -508l-256 8q0 282 -141 524
t-383 381t-525 135v256z" />
    <glyph glyph-name="s" unicode="s" horiz-adv-x="2048" 
d="M1864 621v-240h-400v240h400zM1225 621v-240h-402v240h402zM584 621v-240h-400v240h400zM1704 780v-80h-80v80h80zM1065 780v-80h-82v80h82zM424 780v-80h-80v80h80zM1704 940v-80h-80v80h80zM1065 940v-80h-82v80h82zM424 940v-80h-80v80h80zM1704 1100v-80h-80v80h80z
M1544 1100v-80h-80v80h80zM1384 1100v-80h-79v80h79zM1225 1100v-80h-80v80h80zM1065 1100v-80h-82v80h82zM903 1100v-80h-80v80h80zM743 1100v-80h-79v80h79zM584 1100v-80h-80v80h80zM424 1100v-80h-80v80h80zM1065 1260v-80h-82v80h82zM1065 1419v-80h-82v80h82z
M1225 1741v-242h-402v242h402z" />
    <glyph glyph-name="t" unicode="t" horiz-adv-x="2048" 
d="M1024 575l297 306l55 -58l-352 -358l-352 358l55 58zM672 1225l352 358l352 -358l-55 -58l-297 306l-297 -306z" />
    <glyph glyph-name="u" unicode="u" horiz-adv-x="2048" 
d="M1104 424h-160v913l-391 -417l-121 104l592 600l592 -600l-121 -104l-391 417v-913z" />
    <glyph glyph-name="v" unicode="v" horiz-adv-x="2048" 
d="M1024 360q-115 0 -198 81t-83 197t83 199t198 83t198 -83t83 -199t-83 -197t-198 -81zM1704 1341q0 -117 -82 -197t-198 -79q-116 0 -198 80q-82 81 -81 197q0 116 83 199q82 83 196 83t197 -83t83 -200zM624 1624q114 0 196 -83t83 -200t-81 -197t-198 -79
q-116 0 -198 80q-82 81 -82 197t83 199t197 83z" />
    <glyph glyph-name="w" unicode="w" horiz-adv-x="2048" 
d="M1024 809l537 543l55 -56l-592 -600l-592 600l55 56z" />
    <glyph glyph-name="x" unicode="x" horiz-adv-x="2048" 
d="M1137 1024l344 -336l-121 -121l-336 344l-336 -344l-121 121l344 336l-344 336l121 121l336 -344l336 344l121 -121z" />
    <glyph glyph-name="y" unicode="y" horiz-adv-x="2048" 
d="M340 961l113 110l319 -328l881 889l110 -121l-991 -991z" />
    <glyph glyph-name="z" unicode="z" horiz-adv-x="2048" 
d="M1065 1624v-1200h-82v1200h82z" />
    <glyph glyph-name="braceleft" unicode="{" horiz-adv-x="2048" 
 />
    <glyph glyph-name="bar" unicode="|" horiz-adv-x="2048" 
d="M1065 2048v-2048h-82v2048h82z" />
    <glyph glyph-name="braceright" unicode="}" horiz-adv-x="2048" 
d="M1061 784h-80q-365 0 -531 165t-110 554q45 -106 190 -173t289 -66h242v401l639 -641l-639 -639v399z" />
    <glyph glyph-name="asciitilde" unicode="~" horiz-adv-x="0" 
 />
    <glyph glyph-name="exclamdown" unicode="&#xa1;" horiz-adv-x="2048" 
 />
    <glyph glyph-name="brokenbar" unicode="&#xa6;" horiz-adv-x="0" 
 />
    <glyph glyph-name="guillemotleft" unicode="&#xab;" horiz-adv-x="2048" 
d="M1624 944h-913l417 -391l-104 -121l-600 592l600 592l104 -121l-417 -391h913v-160z" />
    <glyph glyph-name="logicalnot" unicode="&#xac;" horiz-adv-x="0" 
 />
    <glyph glyph-name="plusminus" unicode="&#xb1;" horiz-adv-x="0" 
 />
    <glyph glyph-name="periodcentered" unicode="&#xb7;" horiz-adv-x="2048" 
 />
    <glyph glyph-name="guillemotright" unicode="&#xbb;" horiz-adv-x="2048" 
d="M424 944v160h913l-417 391l104 121l600 -592l-600 -592l-104 121l417 391h-913z" />
    <glyph glyph-name="questiondown" unicode="&#xbf;" horiz-adv-x="2048" 
 />
    <glyph glyph-name="Agrave" unicode="&#xc0;" 
 />
    <glyph glyph-name="Aacute" unicode="&#xc1;" horiz-adv-x="2048" 
d="M1704 1141v80q0 51 -15 65t-65 14h-1057l150 150l-62 90h-311v-960q0 -48 16 -64t64 -16h1200q44 0 52 12t11 18t8 22t9 28l160 401h-1159l-281 -322l160 482h1120zM1704 340h-1360q-84 0 -122 38t-38 122v1200h559l160 -240h801q84 0 122 -38t38 -122v-151h239
l-239 -649q-16 -48 -22 -61t-16 -35q-8 -22 -14 -24t-18 -15q-25 -25 -90 -25z" />
    <glyph glyph-name="Acircumflex" unicode="&#xc2;" 
 />
    <glyph glyph-name="Atilde" unicode="&#xc3;" 
 />
    <glyph glyph-name="Adieresis" unicode="&#xc4;" 
 />
    <glyph glyph-name="Aring" unicode="&#xc5;" 
 />
    <glyph glyph-name="AE" unicode="&#xc6;" horiz-adv-x="4096" 
 />
    <glyph glyph-name="Ccedilla" unicode="&#xc7;" 
 />
    <glyph glyph-name="Egrave" unicode="&#xc8;" 
 />
    <glyph glyph-name="Eacute" unicode="&#xc9;" horiz-adv-x="2048" 
d="M399 999h1280l-159 -239h-1121v239z" />
    <glyph glyph-name="Ecircumflex" unicode="&#xca;" 
 />
    <glyph glyph-name="Edieresis" unicode="&#xcb;" 
 />
    <glyph glyph-name="Igrave" unicode="&#xcc;" 
 />
    <glyph glyph-name="Iacute" unicode="&#xcd;" 
 />
    <glyph glyph-name="Icircumflex" unicode="&#xce;" 
 />
    <glyph glyph-name="Idieresis" unicode="&#xcf;" 
 />
    <glyph glyph-name="Eth" unicode="&#xd0;" horiz-adv-x="2048" 
 />
    <glyph glyph-name="Ntilde" unicode="&#xd1;" 
 />
    <glyph glyph-name="Ograve" unicode="&#xd2;" 
 />
    <glyph glyph-name="Oacute" unicode="&#xd3;" horiz-adv-x="2048" 
 />
    <glyph glyph-name="Ocircumflex" unicode="&#xd4;" 
 />
    <glyph glyph-name="Otilde" unicode="&#xd5;" 
 />
    <glyph glyph-name="Odieresis" unicode="&#xd6;" horiz-adv-x="2048" 
d="M1024 0q-282 0 -518 135t-371 371t-135 518t135 518t371 371t518 135t518 -135t371 -371t135 -518t-135 -518t-371 -371t-518 -135z" />
    <glyph glyph-name="multiply" unicode="&#xd7;" horiz-adv-x="2048" 
d="M1137 1024l344 -336l-121 -121l-336 344l-336 -344l-121 121l344 336l-344 336l121 121l336 -344l336 344l121 -121z" />
    <glyph glyph-name="Oslash" unicode="&#xd8;" horiz-adv-x="2048" 
 />
    <glyph glyph-name="Ugrave" unicode="&#xd9;" 
 />
    <glyph glyph-name="Uacute" unicode="&#xda;" horiz-adv-x="2048" 
d="M940 944h-559v160h559v239l320 -319l-320 -319v239zM1499 1665v-1280h-878v320h159v-160h559v958h-559v-160h-159v322h878z" />
    <glyph glyph-name="Ucircumflex" unicode="&#xdb;" 
 />
    <glyph glyph-name="Udieresis" unicode="&#xdc;" horiz-adv-x="2048" 
d="M1544 384q0 85 39 120h-1132q-27 -47 -27 -119t27 -121h1132q-39 35 -39 120zM823 1305v-160h561v160h-561zM743 1384h721v160h-721v-160zM504 584h41v1200h-41v-1200zM1704 1864v-1360q-32 0 -56 -36t-24 -84t24 -84t56 -36v-80h-1280q-32 0 -56 47t-24 113v1321
q0 127 80 199h1280z" />
    <glyph glyph-name="Yacute" unicode="&#xdd;" 
 />
    <glyph glyph-name="Thorn" unicode="&#xde;" 
 />
    <glyph glyph-name="germandbls" unicode="&#xdf;" 
 />
    <glyph glyph-name="agrave" unicode="&#xe0;" 
 />
    <glyph glyph-name="aacute" unicode="&#xe1;" horiz-adv-x="2048" 
d="M1620 440h-1200q-84 0 -122 38t-38 122v1040h399l160 -239h801q84 0 122 -39t38 -123v-152h200l-200 -487q-16 -48 -22 -61t-16 -35q-8 -22 -14 -24q-6 -4 -24 -22t-84 -18z" />
    <glyph glyph-name="acircumflex" unicode="&#xe2;" 
 />
    <glyph glyph-name="atilde" unicode="&#xe3;" 
 />
    <glyph glyph-name="adieresis" unicode="&#xe4;" 
 />
    <glyph glyph-name="aring" unicode="&#xe5;" 
 />
    <glyph glyph-name="ae" unicode="&#xe6;" horiz-adv-x="4096" 
 />
    <glyph glyph-name="ccedilla" unicode="&#xe7;" 
 />
    <glyph glyph-name="egrave" unicode="&#xe8;" 
 />
    <glyph glyph-name="eacute" unicode="&#xe9;" horiz-adv-x="2048" 
d="M780 1741v-1120l-239 -160v1280h239z" />
    <glyph glyph-name="ecircumflex" unicode="&#xea;" 
 />
    <glyph glyph-name="edieresis" unicode="&#xeb;" 
 />
    <glyph glyph-name="igrave" unicode="&#xec;" 
 />
    <glyph glyph-name="iacute" unicode="&#xed;" 
 />
    <glyph glyph-name="icircumflex" unicode="&#xee;" 
 />
    <glyph glyph-name="idieresis" unicode="&#xef;" 
 />
    <glyph glyph-name="eth" unicode="&#xf0;" 
 />
    <glyph glyph-name="ntilde" unicode="&#xf1;" 
 />
    <glyph glyph-name="ograve" unicode="&#xf2;" 
 />
    <glyph glyph-name="oacute" unicode="&#xf3;" horiz-adv-x="2048" 
 />
    <glyph glyph-name="ocircumflex" unicode="&#xf4;" 
 />
    <glyph glyph-name="otilde" unicode="&#xf5;" 
 />
    <glyph glyph-name="odieresis" unicode="&#xf6;" horiz-adv-x="2048" 
 />
    <glyph glyph-name="divide" unicode="&#xf7;" horiz-adv-x="0" 
 />
    <glyph glyph-name="oslash" unicode="&#xf8;" horiz-adv-x="2048" 
 />
    <glyph glyph-name="ugrave" unicode="&#xf9;" 
 />
    <glyph glyph-name="uacute" unicode="&#xfa;" horiz-adv-x="2048" 
d="M1729 1520h-160v-160h-80v160h-162v79h162v160h80v-160h160v-79z" />
    <glyph glyph-name="ucircumflex" unicode="&#xfb;" 
 />
    <glyph glyph-name="udieresis" unicode="&#xfc;" horiz-adv-x="2048" 
d="M258 1690l760 -760l55 55l-760 762zM1677 268h-1280v881l160 -162v-559h961v961h-240v239h-639l-162 160h881l319 -320v-1200zM1096 1020l200 -426l-426 201l-870 870l225 225z" />
    <glyph glyph-name="yacute" unicode="&#xfd;" 
 />
    <glyph glyph-name="thorn" unicode="&#xfe;" 
 />
    <glyph glyph-name="ydieresis" unicode="&#xff;" 
 />
    <glyph glyph-name="Amacron" unicode="&#x100;" 
 />
    <glyph glyph-name="amacron" unicode="&#x101;" 
 />
    <glyph glyph-name="Abreve" unicode="&#x102;" 
 />
    <glyph glyph-name="abreve" unicode="&#x103;" 
 />
    <glyph glyph-name="Aogonek" unicode="&#x104;" 
 />
    <glyph glyph-name="aogonek" unicode="&#x105;" 
 />
    <glyph glyph-name="Cacute" unicode="&#x106;" 
 />
    <glyph glyph-name="cacute" unicode="&#x107;" 
 />
    <glyph glyph-name="Cdotaccent" unicode="&#x10a;" 
 />
    <glyph glyph-name="cdotaccent" unicode="&#x10b;" 
 />
    <glyph glyph-name="Ccaron" unicode="&#x10c;" 
 />
    <glyph glyph-name="ccaron" unicode="&#x10d;" 
 />
    <glyph glyph-name="Dcaron" unicode="&#x10e;" 
 />
    <glyph glyph-name="dcaron" unicode="&#x10f;" horiz-adv-x="2048" 
 />
    <glyph glyph-name="Dcroat" unicode="&#x110;" 
 />
    <glyph glyph-name="dcroat" unicode="&#x111;" 
 />
    <glyph glyph-name="Emacron" unicode="&#x112;" 
 />
    <glyph glyph-name="emacron" unicode="&#x113;" 
 />
    <glyph glyph-name="Edotaccent" unicode="&#x116;" 
 />
    <glyph glyph-name="edotaccent" unicode="&#x117;" 
 />
    <glyph glyph-name="Eogonek" unicode="&#x118;" 
 />
    <glyph glyph-name="eogonek" unicode="&#x119;" 
 />
    <glyph glyph-name="Ecaron" unicode="&#x11a;" 
 />
    <glyph glyph-name="ecaron" unicode="&#x11b;" 
 />
    <glyph glyph-name="Gbreve" unicode="&#x11e;" horiz-adv-x="2048" 
d="M504 1360q0 227 148 378q148 150 372 150t372 -150q148 -151 148 -378q0 -184 -170 -437q-72 -108 -146 -231t-132 -303q-60 -180 -72 -389q-12 209 -70 389q-57 180 -132 303t-147 231q-171 253 -171 437z" />
    <glyph glyph-name="gbreve" unicode="&#x11f;" 
 />
    <glyph glyph-name="Gdotaccent" unicode="&#x120;" 
 />
    <glyph glyph-name="gdotaccent" unicode="&#x121;" 
 />
    <glyph glyph-name="Gcommaaccent" unicode="&#x122;" 
 />
    <glyph glyph-name="gcommaaccent" unicode="&#x123;" 
 />
    <glyph glyph-name="Hbar" unicode="&#x126;" 
 />
    <glyph glyph-name="hbar" unicode="&#x127;" 
 />
    <glyph glyph-name="Itilde" unicode="&#x128;" 
 />
    <glyph glyph-name="itilde" unicode="&#x129;" 
 />
    <glyph glyph-name="Imacron" unicode="&#x12a;" 
 />
    <glyph glyph-name="imacron" unicode="&#x12b;" 
 />
    <glyph glyph-name="Iogonek" unicode="&#x12e;" 
 />
    <glyph glyph-name="iogonek" unicode="&#x12f;" 
 />
    <glyph glyph-name="Idotaccent" unicode="&#x130;" 
 />
    <glyph glyph-name="dotlessi" unicode="&#x131;" 
 />
    <glyph glyph-name="IJ" unicode="&#x132;" horiz-adv-x="4096" 
 />
    <glyph glyph-name="ij" unicode="&#x133;" horiz-adv-x="4096" 
 />
    <glyph glyph-name="Kcommaaccent" unicode="&#x136;" 
 />
    <glyph glyph-name="kcommaaccent" unicode="&#x137;" 
 />
    <glyph glyph-name="Lacute" unicode="&#x139;" 
 />
    <glyph glyph-name="lacute" unicode="&#x13a;" 
 />
    <glyph glyph-name="Lcommaaccent" unicode="&#x13b;" 
 />
    <glyph glyph-name="lcommaaccent" unicode="&#x13c;" 
 />
    <glyph glyph-name="Lcaron" unicode="&#x13d;" horiz-adv-x="2048" 
 />
    <glyph glyph-name="lcaron" unicode="&#x13e;" horiz-adv-x="2048" 
d="M1745 1229q0 -107 -48 -199t-121 -153t-162 -127t-168 -120t-141 -132t-81 -166q-33 139 -185 260q-65 51 -139 101q-177 119 -270 216q-127 131 -127 320q0 151 88 243t206 106t241 -60t186 -226q63 150 186 224t241 62t206 -104q88 -93 88 -245z" />
    <glyph glyph-name="Ldot" unicode="&#x13f;" horiz-adv-x="2048" 
 />
    <glyph glyph-name="ldot" unicode="&#x140;" horiz-adv-x="2048" 
 />
    <glyph glyph-name="Lslash" unicode="&#x141;" 
 />
    <glyph glyph-name="lslash" unicode="&#x142;" 
 />
    <glyph glyph-name="Nacute" unicode="&#x143;" 
 />
    <glyph glyph-name="nacute" unicode="&#x144;" 
 />
    <glyph glyph-name="Ncommaaccent" unicode="&#x145;" 
 />
    <glyph glyph-name="ncommaaccent" unicode="&#x146;" 
 />
    <glyph glyph-name="Ncaron" unicode="&#x147;" 
 />
    <glyph glyph-name="ncaron" unicode="&#x148;" 
 />
    <glyph glyph-name="Eng" unicode="&#x14a;" 
 />
    <glyph glyph-name="eng" unicode="&#x14b;" 
 />
    <glyph glyph-name="Omacron" unicode="&#x14c;" 
 />
    <glyph glyph-name="omacron" unicode="&#x14d;" 
 />
    <glyph glyph-name="Ohungarumlaut" unicode="&#x150;" horiz-adv-x="2048" 
 />
    <glyph glyph-name="ohungarumlaut" unicode="&#x151;" horiz-adv-x="2048" 
 />
    <glyph glyph-name="OE" unicode="&#x152;" horiz-adv-x="4096" 
 />
    <glyph glyph-name="oe" unicode="&#x153;" horiz-adv-x="4096" 
 />
    <glyph glyph-name="Racute" unicode="&#x154;" horiz-adv-x="2048" 
 />
    <glyph glyph-name="racute" unicode="&#x155;" 
 />
    <glyph glyph-name="Rcommaaccent" unicode="&#x156;" horiz-adv-x="2048" 
 />
    <glyph glyph-name="rcommaaccent" unicode="&#x157;" 
 />
    <glyph glyph-name="Rcaron" unicode="&#x158;" horiz-adv-x="2048" 
 />
    <glyph glyph-name="rcaron" unicode="&#x159;" 
 />
    <glyph glyph-name="Sacute" unicode="&#x15a;" horiz-adv-x="2048" 
d="M467 1077q0 -205 144 -348t347 -143t348 143q144 143 144 348t-144 348t-348 143t-347 -142q-144 -144 -144 -349zM242 1078q0 296 211 506t507 210t505 -210q210 -210 210 -507q0 -207 -110 -379l247 -331l-167 -168l-330 258q-164 -96 -357 -97q-296 0 -506 211
t-210 507z" />
    <glyph glyph-name="sacute" unicode="&#x15b;" 
 />
    <glyph glyph-name="Scedilla" unicode="&#x15e;" horiz-adv-x="2048" 
 />
    <glyph glyph-name="scedilla" unicode="&#x15f;" 
 />
    <glyph glyph-name="Scaron" unicode="&#x160;" horiz-adv-x="2048" 
 />
    <glyph glyph-name="scaron" unicode="&#x161;" 
 />
    <glyph glyph-name="Tcedilla" unicode="&#x162;" 
 />
    <glyph glyph-name="tcedilla" unicode="&#x163;" 
 />
    <glyph glyph-name="Tcaron" unicode="&#x164;" 
 />
    <glyph glyph-name="tcaron" unicode="&#x165;" horiz-adv-x="2048" 
 />
    <glyph glyph-name="Tbar" unicode="&#x166;" 
 />
    <glyph glyph-name="tbar" unicode="&#x167;" 
 />
    <glyph glyph-name="Utilde" unicode="&#x168;" 
 />
    <glyph glyph-name="utilde" unicode="&#x169;" 
 />
    <glyph glyph-name="Umacron" unicode="&#x16a;" 
 />
    <glyph glyph-name="umacron" unicode="&#x16b;" 
 />
    <glyph glyph-name="Uring" unicode="&#x16e;" 
 />
    <glyph glyph-name="uring" unicode="&#x16f;" 
 />
    <glyph glyph-name="Uhungarumlaut" unicode="&#x170;" horiz-adv-x="2048" 
d="M1445 420q50 0 86 35t36 85t-36 85t-86 35t-85 -36q-35 -34 -35 -84t35 -85t85 -35zM645 420q51 0 86 35t35 85t-35 85t-86 35t-85 -36q-34 -34 -34 -84t34 -85t85 -35zM1446 299q-100 0 -170 71t-70 170t70 170q70 70 170 70t170 -70t70 -170q0 -99 -70 -170t-170 -71z
M645 299q-100 0 -170 71q-69 71 -69 170t69 170q70 70 170 70t171 -70t71 -170q0 -99 -71 -170t-171 -71zM1245 1020q-51 0 -85 35t-34 85t34 85t85 35t86 -35t35 -85t-35 -85t-86 -35zM925 1020q-50 0 -84 35t-34 85t34 85t84 35t86 -35t36 -85t-36 -85t-86 -35zM1407 1280
q-49 0 -85 35t-36 85t35 85t85 35t85 -35t35 -85t-35 -85t-84 -35zM1085 1280q-51 0 -85 35t-34 85t34 85t85 35t86 -35t35 -85t-35 -85t-86 -35zM765 1280q-50 0 -85 35t-35 85t35 85t85 35t86 -35t36 -85t-36 -85t-86 -35zM1296 811h-444q-59 0 -101 19q-42 20 -80 72
t-62 99t-68 148l-109 240q-31 71 -44 95t-43 56t-72 39q-42 8 -109 8h-113q-23 -1 -37 15t-14 36v13q0 21 14 35t35 14h115q204 0 287 -113q31 -41 44 -71t37 -89l109 -231q74 -166 112 -215t99 -49h444q43 0 70 26t74 107l237 420q30 44 78 12q45 -25 19 -70l-238 -419
q-38 -68 -62 -103t-71 -65t-107 -29z" />
    <glyph glyph-name="uhungarumlaut" unicode="&#x171;" horiz-adv-x="2048" 
d="M1445 420q50 0 86 35t36 85t-36 85t-86 35t-85 -36q-35 -34 -35 -84t35 -85t85 -35zM645 420q51 0 86 35t35 85t-35 85t-86 35t-85 -36q-34 -34 -34 -84t34 -85t85 -35zM1446 299q-100 0 -170 71t-70 170t70 170q70 70 170 70t170 -70t70 -170q0 -99 -70 -170t-170 -71z
M645 299q-100 0 -170 71q-69 71 -69 170t69 170q70 70 170 70t171 -70t71 -170q0 -99 -71 -170t-171 -71zM1296 811h-444q-59 0 -101 19q-42 20 -80 72t-62 99t-68 148l-109 240q-31 71 -44 95t-43 56t-72 39q-42 8 -109 8h-113q-23 -1 -37 15t-14 36v13q0 21 14 35t35 14
h115q204 0 287 -113q31 -41 44 -71t37 -89l109 -231q74 -166 112 -215t99 -49h444q43 0 70 26t74 107l237 420q30 44 78 12q45 -25 19 -70l-238 -419q-38 -68 -62 -103t-71 -65t-107 -29zM795 1428q0 22 16 36l4 6q37 35 72 0l133 -135v414q0 19 14 35t35 16h12q19 0 35 -15
t17 -36v-414l129 133q37 39 69 2q23 -22 23 -44t-17 -35l-227 -230q-37 -33 -72 0l-227 230q-16 15 -16 37z" />
    <glyph glyph-name="Uogonek" unicode="&#x172;" 
 />
    <glyph glyph-name="uogonek" unicode="&#x173;" 
 />
    <glyph glyph-name="Wcircumflex" unicode="&#x174;" 
 />
    <glyph glyph-name="wcircumflex" unicode="&#x175;" 
 />
    <glyph glyph-name="Ycircumflex" unicode="&#x176;" 
 />
    <glyph glyph-name="ycircumflex" unicode="&#x177;" 
 />
    <glyph glyph-name="Ydieresis" unicode="&#x178;" 
 />
    <glyph glyph-name="Zacute" unicode="&#x179;" 
 />
    <glyph glyph-name="zacute" unicode="&#x17a;" 
 />
    <glyph glyph-name="Zdotaccent" unicode="&#x17b;" 
 />
    <glyph glyph-name="zdotaccent" unicode="&#x17c;" 
 />
    <glyph glyph-name="Zcaron" unicode="&#x17d;" 
 />
    <glyph glyph-name="zcaron" unicode="&#x17e;" 
 />
    <glyph glyph-name="Bhook" unicode="&#x181;" 
 />
    <glyph glyph-name="Oopen" unicode="&#x186;" 
 />
    <glyph glyph-name="Chook" unicode="&#x187;" 
 />
    <glyph glyph-name="chook" unicode="&#x188;" 
 />
    <glyph glyph-name="Dafrican" unicode="&#x189;" 
 />
    <glyph glyph-name="Dhook" unicode="&#x18a;" 
 />
    <glyph glyph-name="Ereversed" unicode="&#x18e;" 
 />
    <glyph glyph-name="Schwa" unicode="&#x18f;" horiz-adv-x="2048" 
 />
    <glyph glyph-name="Eopen" unicode="&#x190;" 
 />
    <glyph glyph-name="Fhook" unicode="&#x191;" 
 />
    <glyph glyph-name="florin" unicode="&#x192;" horiz-adv-x="2048" 
 />
    <glyph glyph-name="Ghook" unicode="&#x193;" 
 />
    <glyph glyph-name="Gammaafrican" unicode="&#x194;" horiz-adv-x="2048" 
d="M743 1373q0 -117 81 -197t197 -80t200 81t84 197t-85 200q-85 83 -199 83t-196 -84t-82 -200zM504 1360q0 227 148 378q148 150 372 150t372 -150q148 -151 148 -378q0 -184 -170 -437q-72 -108 -146 -231t-132 -303q-60 -180 -72 -389q-12 209 -70 389q-57 180 -132 303
t-147 231q-171 253 -171 437z" />
    <glyph glyph-name="Iotaafrican" unicode="&#x196;" 
 />
    <glyph glyph-name="Istroke" unicode="&#x197;" 
 />
    <glyph glyph-name="Khook" unicode="&#x198;" 
 />
    <glyph glyph-name="khook" unicode="&#x199;" 
 />
    <glyph glyph-name="Nhookleft" unicode="&#x19d;" 
 />
    <glyph glyph-name="Ohorn" unicode="&#x1a0;" 
 />
    <glyph glyph-name="ohorn" unicode="&#x1a1;" 
 />
    <glyph glyph-name="Phook" unicode="&#x1a4;" 
 />
    <glyph glyph-name="phook" unicode="&#x1a5;" 
 />
    <glyph glyph-name="Esh" unicode="&#x1a9;" 
 />
    <glyph glyph-name="Thook" unicode="&#x1ac;" 
 />
    <glyph glyph-name="thook" unicode="&#x1ad;" 
 />
    <glyph glyph-name="Tretroflexhook" unicode="&#x1ae;" 
 />
    <glyph glyph-name="Uhorn" unicode="&#x1af;" 
 />
    <glyph glyph-name="uhorn" unicode="&#x1b0;" 
 />
    <glyph glyph-name="Upsilonafrican" unicode="&#x1b1;" 
 />
    <glyph glyph-name="Vhook" unicode="&#x1b2;" 
 />
    <glyph glyph-name="Yhook" unicode="&#x1b3;" 
 />
    <glyph glyph-name="yhook" unicode="&#x1b4;" 
 />
    <glyph glyph-name="Ezh" unicode="&#x1b7;" 
 />
    <glyph glyph-name="clickdental" unicode="&#x1c0;" 
 />
    <glyph glyph-name="clicklateral" unicode="&#x1c1;" 
 />
    <glyph glyph-name="clickalveolar" unicode="&#x1c2;" 
 />
    <glyph glyph-name="clickretroflex" unicode="&#x1c3;" 
 />
    <glyph glyph-name="Acaron" unicode="&#x1cd;" 
 />
    <glyph glyph-name="acaron" unicode="&#x1ce;" 
 />
    <glyph glyph-name="Icaron" unicode="&#x1cf;" 
 />
    <glyph glyph-name="icaron" unicode="&#x1d0;" 
 />
    <glyph glyph-name="Ocaron" unicode="&#x1d1;" 
 />
    <glyph glyph-name="ocaron" unicode="&#x1d2;" 
 />
    <glyph glyph-name="Ucaron" unicode="&#x1d3;" 
 />
    <glyph glyph-name="ucaron" unicode="&#x1d4;" 
 />
    <glyph glyph-name="Udieresismacron" unicode="&#x1d5;" 
 />
    <glyph glyph-name="udieresismacron" unicode="&#x1d6;" 
 />
    <glyph glyph-name="Udieresisacute" unicode="&#x1d7;" 
 />
    <glyph glyph-name="udieresisacute" unicode="&#x1d8;" 
 />
    <glyph glyph-name="Udieresiscaron" unicode="&#x1d9;" 
 />
    <glyph glyph-name="udieresiscaron" unicode="&#x1da;" 
 />
    <glyph glyph-name="Udieresisgrave" unicode="&#x1db;" 
 />
    <glyph glyph-name="udieresisgrave" unicode="&#x1dc;" 
 />
    <glyph glyph-name="eturned" unicode="&#x1dd;" 
 />
    <glyph glyph-name="Adieresismacron" unicode="&#x1de;" 
 />
    <glyph glyph-name="adieresismacron" unicode="&#x1df;" 
 />
    <glyph glyph-name="Gcaron" unicode="&#x1e6;" horiz-adv-x="2048" 
d="M1061 82h-74q-29 0 -48 19t-24 49q-30 315 -171 583q-56 109 -111 209q-129 235 -129 418q0 227 148 378q148 150 372 150t372 -150q148 -151 148 -378q0 -182 -126 -418q-54 -100 -111 -209q-141 -269 -174 -583q-3 -32 -23 -50t-49 -18z" />
    <glyph glyph-name="gcaron" unicode="&#x1e7;" 
 />
    <glyph glyph-name="Oslashacute" unicode="&#x1fe;" 
 />
    <glyph glyph-name="oslashacute" unicode="&#x1ff;" 
 />
    <glyph glyph-name="Scommaaccent" unicode="&#x218;" horiz-adv-x="2048" 
 />
    <glyph glyph-name="scommaaccent" unicode="&#x219;" 
 />
    <glyph glyph-name="uni021A" unicode="&#x21a;" 
 />
    <glyph glyph-name="uni021B" unicode="&#x21b;" 
 />
    <glyph glyph-name="uni0228" unicode="&#x228;" 
 />
    <glyph glyph-name="uni0229" unicode="&#x229;" 
 />
    <glyph glyph-name="uni0241" unicode="&#x241;" 
 />
    <glyph glyph-name="uni0242" unicode="&#x242;" 
 />
    <glyph glyph-name="uni0243" unicode="&#x243;" 
 />
    <glyph glyph-name="uni0244" unicode="&#x244;" 
 />
    <glyph glyph-name="uni024B" unicode="&#x24b;" 
 />
    <glyph glyph-name="uni024C" unicode="&#x24c;" horiz-adv-x="2048" 
 />
    <glyph glyph-name="aturned" unicode="&#x250;" 
 />
    <glyph glyph-name="ascript" unicode="&#x251;" 
 />
    <glyph glyph-name="ascriptturned" unicode="&#x252;" 
 />
    <glyph glyph-name="bhook" unicode="&#x253;" 
 />
    <glyph glyph-name="oopen" unicode="&#x254;" 
 />
    <glyph glyph-name="ccurl" unicode="&#x255;" 
 />
    <glyph glyph-name="dtail" unicode="&#x256;" 
 />
    <glyph glyph-name="dhook" unicode="&#x257;" 
 />
    <glyph glyph-name="ereversed" unicode="&#x258;" 
 />
    <glyph glyph-name="schwa" unicode="&#x259;" 
 />
    <glyph glyph-name="schwahook" unicode="&#x25a;" 
 />
    <glyph glyph-name="eopen" unicode="&#x25b;" 
 />
    <glyph glyph-name="eopenreversed" unicode="&#x25c;" 
 />
    <glyph glyph-name="eopenreversedhook" unicode="&#x25d;" 
 />
    <glyph glyph-name="eopenreversedclosed" unicode="&#x25e;" 
 />
    <glyph glyph-name="jdotlessstroke" unicode="&#x25f;" 
 />
    <glyph glyph-name="ghook" unicode="&#x260;" 
 />
    <glyph glyph-name="gscript" unicode="&#x261;" 
 />
    <glyph glyph-name="uni0262" unicode="&#x262;" 
 />
    <glyph glyph-name="gammalatinsmall" unicode="&#x263;" 
 />
    <glyph glyph-name="ramshorn" unicode="&#x264;" 
 />
    <glyph glyph-name="hturned" unicode="&#x265;" 
 />
    <glyph glyph-name="hhook" unicode="&#x266;" 
 />
    <glyph glyph-name="henghook" unicode="&#x267;" 
 />
    <glyph glyph-name="istroke" unicode="&#x268;" 
 />
    <glyph glyph-name="iotalatin" unicode="&#x269;" 
 />
    <glyph glyph-name="uni026A" unicode="&#x26a;" 
 />
    <glyph glyph-name="lmiddletilde" unicode="&#x26b;" 
 />
    <glyph glyph-name="lbelt" unicode="&#x26c;" 
 />
    <glyph glyph-name="lhookretroflex" unicode="&#x26d;" 
 />
    <glyph glyph-name="lezh" unicode="&#x26e;" 
 />
    <glyph glyph-name="mturned" unicode="&#x26f;" 
 />
    <glyph glyph-name="mlonglegturned" unicode="&#x270;" 
 />
    <glyph glyph-name="mhook" unicode="&#x271;" 
 />
    <glyph glyph-name="nhookleft" unicode="&#x272;" 
 />
    <glyph glyph-name="nhookretroflex" unicode="&#x273;" 
 />
    <glyph glyph-name="uni0274" unicode="&#x274;" 
 />
    <glyph glyph-name="obarred" unicode="&#x275;" 
 />
    <glyph glyph-name="uni0276" unicode="&#x276;" 
 />
    <glyph glyph-name="philatin" unicode="&#x278;" 
 />
    <glyph glyph-name="rturned" unicode="&#x279;" 
 />
    <glyph glyph-name="rlonglegturned" unicode="&#x27a;" 
 />
    <glyph glyph-name="rhookturned" unicode="&#x27b;" 
 />
    <glyph glyph-name="rhook" unicode="&#x27d;" 
 />
    <glyph glyph-name="rfishhook" unicode="&#x27e;" 
 />
    <glyph glyph-name="uni0280" unicode="&#x280;" 
 />
    <glyph glyph-name="Rsmallinverted" unicode="&#x281;" 
 />
    <glyph glyph-name="shook" unicode="&#x282;" 
 />
    <glyph glyph-name="esh" unicode="&#x283;" 
 />
    <glyph glyph-name="dotlessjstrokehook" unicode="&#x284;" 
 />
    <glyph glyph-name="tretroflexhook" unicode="&#x288;" 
 />
    <glyph glyph-name="ubar" unicode="&#x289;" 
 />
    <glyph glyph-name="upsilonlatin" unicode="&#x28a;" 
 />
    <glyph glyph-name="vhook" unicode="&#x28b;" 
 />
    <glyph glyph-name="vturned" unicode="&#x28c;" 
 />
    <glyph glyph-name="wturned" unicode="&#x28d;" 
 />
    <glyph glyph-name="yturned" unicode="&#x28e;" 
 />
    <glyph glyph-name="uni028F" unicode="&#x28f;" 
 />
    <glyph glyph-name="zretroflexhook" unicode="&#x290;" 
 />
    <glyph glyph-name="zcurl" unicode="&#x291;" 
 />
    <glyph glyph-name="ezh" unicode="&#x292;" 
 />
    <glyph glyph-name="glottalstop" unicode="&#x294;" 
 />
    <glyph glyph-name="glottalstopreversed" unicode="&#x295;" 
 />
    <glyph glyph-name="bilabialclick" unicode="&#x298;" 
 />
    <glyph glyph-name="uni0299" unicode="&#x299;" 
 />
    <glyph glyph-name="Gsmallhook" unicode="&#x29b;" 
 />
    <glyph glyph-name="uni029C" unicode="&#x29c;" 
 />
    <glyph glyph-name="jcrossedtail" unicode="&#x29d;" 
 />
    <glyph glyph-name="uni029F" unicode="&#x29f;" 
 />
    <glyph glyph-name="glottalstopstroke" unicode="&#x2a1;" 
 />
    <glyph glyph-name="glottalstopstrokereversed" unicode="&#x2a2;" 
 />
    <glyph glyph-name="dezh" unicode="&#x2a4;" 
 />
    <glyph glyph-name="tesh" unicode="&#x2a7;" 
 />
    <glyph glyph-name="uni02BC" unicode="&#x2bc;" 
 />
    <glyph glyph-name="uni0370" unicode="&#x370;" horiz-adv-x="2048" 
d="M1014 1716q-162 0 -261 -62t-99 -173t88 -188q89 -77 243 -119q279 -80 279 -254q0 -78 -56 -138t-153 -65q-12 0 0 6q145 66 145 188q0 66 -81 126q-81 61 -239 61t-275 -92q-116 -92 -116 -258t151 -276t374 -110q162 0 402 141q86 50 114 53t29 15q0 100 -125 101
q-86 0 -158 -97q-90 -119 -244 -118q-127 0 -209 86t-82 209q0 122 46 194t139 72q48 0 72 -29t24 -75t-42 -100q-42 -56 -124 -89q-8 -2 -8 -17q0 -14 6 -28t8 -14q59 -20 185 -21q199 1 313 105t113 239q-1 96 -63 175q-62 80 -220 144t-226 111t-67 103q0 100 125 100
q166 0 225 -160q29 -70 111 -69q53 -1 86 27t33 79q0 8 -25 20q-25 13 -79 53t-93 68q-40 28 -110 52t-156 24zM1024 2048q278 0 514 -136t373 -373t137 -515t-137 -514t-373 -373t-514 -137t-514 137t-373 373t-137 514t137 516q137 236 373 372t514 136z" />
    <glyph glyph-name="uni0371" unicode="&#x371;" 
 />
    <glyph glyph-name="uni0372" unicode="&#x372;" horiz-adv-x="2048" 
d="M1014 1716q86 0 156 -24t110 -52q141 -105 168 -119q28 -14 29 -22q0 -51 -33 -79t-86 -27q-82 0 -111 69q-59 160 -225 160q-125 0 -125 -100q0 -54 68 -102q67 -48 225 -112t220 -144q62 -79 63 -175q0 -135 -114 -238t-312 -106q-125 0 -185 21q-2 0 -8 13t-6 29t8 17
q82 33 124 88t42 101t-25 76q-25 28 -71 28q-92 0 -138 -72t-47 -194q0 -122 82 -209q83 -86 223 -86t221 107t167 108q125 0 125 -101q0 -12 -29 -15t-114 -53q-237 -139 -402 -141q-223 0 -374 110t-151 276t116 258q117 92 275 92t239 -60t81 -127q0 -123 -145 -188
q-12 -6 0 -6q98 6 153 65t56 138q0 174 -279 254q-332 93 -332 309q-1 109 99 171t262 62z" />
    <glyph glyph-name="uni0373" unicode="&#x373;" 
 />
    <glyph glyph-name="uni0376" unicode="&#x376;" 
 />
    <glyph glyph-name="uni0377" unicode="&#x377;" 
 />
    <glyph glyph-name="Alphatonos" unicode="&#x386;" horiz-adv-x="2048" 
d="M1100 307v234l264 137l-21 39l-243 -125v121l153 80l-20 38l-133 -67v168h-148v-254l-129 88l-24 -35l153 -108v-316h-573q-18 0 -29 15q-12 25 -4 36l645 1483q12 23 36 23t30 -23l645 -1483q10 -16 -2 -33t-31 -18h-569z" />
    <glyph glyph-name="Epsilontonos" unicode="&#x388;" horiz-adv-x="2048" 
d="M1348 557l135 88v-100l-459 -275l-459 275v100l140 -88l319 264zM1024 879l463 286l-463 283l319 270l459 -301l-315 -252l315 -254l-459 -297zM1024 879l-319 -265l-459 297l315 254l-315 252l459 301l319 -270l-463 -283z" />
    <glyph glyph-name="Etatonos" unicode="&#x389;" horiz-adv-x="2048" 
d="M1468 1354q-58 0 -89 -31t-31 -73q1 -69 67 -97q25 -10 86 -29q20 -12 41 -14q127 -43 183 -99q57 -56 57 -173t-91 -197t-225 -80q-225 6 -315 225l-162 369q-37 86 -117 138t-176 53q-135 0 -229 -94t-94 -226q0 -133 94 -227t229 -94q88 0 166 46t117 126q6 6 11 6
t9 -6l58 -138v-10q-137 -172 -347 -172t-346 138q-138 138 -139 331q1 193 139 330t332 137q145 0 258 -75t172 -212q0 -2 41 -92t109 -256q33 -78 71 -115q39 -37 113 -39t126 38t52 98t-31 81t-149 61t-184 95t-66 166t70 175t188 67q152 0 230 -139v-7l-4 -8l-101 -49
q-2 -2 -10 2q-55 70 -113 70z" />
    <glyph glyph-name="Iotatonos" unicode="&#x38a;" horiz-adv-x="2048" 
d="M238 987q8 0 8 -6l10 -86l-10 -86q0 -4 -8 -4l-7 4l-12 86l12 86q-1 6 7 6zM296 752q-7 0 -7 6l-15 137l15 139q0 6 7 6t7 -6l16 -139l-16 -137q0 -6 -7 -6zM480 719q-9 0 -9 10l-14 166l14 158q0 10 9 10t9 -10l17 -158l-17 -166q0 -10 -9 -10zM355 725q-7 0 -7 8
l-14 162l14 164q0 8 7 8t7 -8l19 -164l-19 -162q0 -8 -7 -8zM419 719q-9 0 -9 10l-15 166l15 168q0 10 9 10t9 -10l14 -168l-14 -166q0 -10 -9 -10zM543 715q-10 0 -11 14l-14 166l14 258q0 10 10 10t11 -10l14 -258l-14 -166q0 -14 -10 -14zM605 715q-13 0 -13 14l-10 166
l10 315q0 14 14 15q12 0 12 -15l15 -315l-15 -166q0 -14 -13 -14zM864 715q-20 0 -20 18l-8 162l8 332q0 6 6 12t12 6q20 0 21 -18l8 -332l-8 -162q1 -18 -19 -18zM668 1249q14 0 14 -14l14 -340l-14 -166q0 -14 -14 -14t-15 14l-10 166l10 340q1 14 15 14zM799 715
q-16 0 -17 18l-10 162l10 344q0 16 16 16t17 -16l10 -344l-10 -162q0 -18 -16 -18zM734 715q-16 0 -15 18l-12 162l12 354q0 15 15 15t16 -15l12 -354l-12 -162q0 -18 -16 -18zM930 1311q18 0 18 -23l10 -393l-10 -158q0 -23 -18 -22q-8 0 -16 7q-7 7 -7 15l-6 158l6 393
q0 8 7 16t16 7zM965 895l8 430q-1 21 21 21t22 -21l10 -430l-10 -158q0 -23 -23 -22q-20 0 -20 22zM1034 737v609q0 18 17 22q63 25 123 25q131 0 228 -90t107 -220q39 14 76 15q78 0 134 -56q57 -56 57 -136q0 -79 -56 -135t-135 -56h-530q-21 -1 -21 22z" />
    <glyph glyph-name="Omicrontonos" unicode="&#x38c;" horiz-adv-x="2048" 
d="M1040 246q-125 0 -235 33l233 677l240 -655l4 -12q-117 -43 -242 -43zM315 1339l369 -1013q-198 96 -318 283t-120 415q-1 159 69 315zM1712 1319q0 14 -2 40t-2 38q94 -182 94 -383q0 -200 -104 -380t-283 -284l236 688q61 143 61 281zM426 1450h-51q109 164 279 258
t370 94q305 0 526 -205h-10q-57 1 -95 -39t-38 -93t57 -150q16 -27 23 -37q63 -119 63 -215t-59 -250l-80 -258l-278 836l88 6q18 2 25 18q7 15 -2 31t-30 16q-125 -12 -204 -12l-207 12q-31 0 -34 -30t30 -35q39 -4 82 -6l123 -334l-173 -510l-284 844l90 6q33 4 30 35
t-34 30q-129 -12 -207 -12z" />
    <glyph glyph-name="Upsilontonos" unicode="&#x38e;" horiz-adv-x="2048" 
d="M479 1130h-78v-215h78v215zM1651 1135h-78v-215h78v215zM1186 1135h-82v-215h82v215zM1802 1260v-678h-387v133h236v76h-236v469h387zM1335 1260v-678h-389v133h240v76h-238v469h387zM713 791v473h157v-473h-157zM713 1331v129h157v-129h-157zM633 1468v-677h-387v473
h233v204h154z" />
    <glyph glyph-name="Omegatonos" unicode="&#x38f;" horiz-adv-x="2048" 
d="M1735 707q0 -111 -78 -189t-189 -78h-43q-111 0 -189 78t-79 189v333q0 37 -27 67t-63 30h-360q-39 0 -67 -28q-28 -27 -28 -63t28 -64t69 -32l55 -4q108 -4 184 -80t72 -178t-84 -175t-186 -73h-572v172h572q36 0 66 24t31 56t-26 54q-27 24 -65 28l-58 4
q-106 4 -184 84t-78 186t80 181q80 76 191 76h358q109 0 189 -78t79 -187v-333q0 -39 27 -67t65 -28h43q39 0 67 28t28 67v1118h153l19 -4v-1114z" />
    <glyph glyph-name="iotadieresistonos" unicode="&#x390;" horiz-adv-x="2048" 
 />
    <glyph glyph-name="Alpha" unicode="&#x391;" horiz-adv-x="2048" 
d="M301 1182v2q68 -39 145 -39q-143 96 -143 266q0 80 43 160q119 -145 291 -233t369 -99q-6 61 -7 72q1 131 95 224t231 93t225 -100q104 20 205 80q-37 -113 -139 -176q109 14 182 51q-68 -102 -162 -170q4 -10 4 -39q0 -162 -60 -321q-133 -353 -461 -507
q-177 -82 -388 -81q-270 0 -491 143q25 -4 75 -4q227 0 398 135q-101 1 -185 65t-112 158q34 -8 70 -8t73 14q-111 23 -185 110t-73 204z" />
    <glyph glyph-name="Beta" unicode="&#x392;" horiz-adv-x="2048" 
d="M803 1049q0 -76 24 -136q-86 -358 -103 -434t-11 -168q-211 92 -339 285t-128 428q0 324 227 551t551 227t551 -227t227 -551t-227 -551t-551 -227q-106 0 -221 33q59 90 78 165l57 215q18 -39 72 -69t118 -29q184 0 303 152q118 152 117 383q0 178 -140 311t-355 133
q-258 0 -407 -150q-148 -151 -148 -337q0 -231 161 -293q25 -12 39 16l15 62q4 27 -11 47q-51 55 -51 149q-1 154 105 264t268 109q162 0 248 -83t86 -214q0 -172 -70 -294t-178 -122q-63 0 -100 45t-21 107q8 35 38 134t30 145t-28 80t-84 34t-99 -57t-43 -133z" />
    <glyph glyph-name="Gamma" unicode="&#x393;" horiz-adv-x="2048" 
d="M776 1280v154q0 176 51 239q88 119 266 119t244 -23l27 -6l-39 -237q-63 18 -129 18q-119 0 -119 -86v-178h258l-16 -233h-242v-811h-301v811h-160v233h160z" />
    <glyph glyph-name="Delta" unicode="&#x394;" horiz-adv-x="2048" 
d="M770 274q352 0 352 252q0 85 -73 148q-23 18 -34 27t-44 32t-47 33q-63 18 -121 18q-139 2 -246 -73q-106 -77 -106 -181t92 -180t227 -76zM1778 934h-187v-186h-151v186h-187v153h187v187h151v-187h187v-153zM821 1102q94 -2 149 82q54 84 38 206t-94 208t-172 88
q-93 4 -147 -79t-39 -205t93 -210t172 -90zM1180 1401q0 -143 -138 -256q-55 -41 -73 -69q-19 -28 -19 -74t129 -144q92 -66 130 -136t38 -175q0 -141 -128 -245t-341 -103q-213 -1 -356 77t-143 210t138 238t335 105h84q-66 65 -66 123t25 101h-45q-162 0 -265 101
q-102 100 -102 244t129 250t291 107h483l-110 -80h-152q74 -29 115 -105t41 -169z" />
    <glyph glyph-name="Epsilon" unicode="&#x395;" horiz-adv-x="2048" 
d="M817 1325v-600l508 299zM1802 748q0 -76 -28 -132t-67 -80q-79 -48 -146 -55l-27 -2h-1018q-76 0 -131 28q-55 27 -81 67q-51 78 -56 147l-2 27v555q0 76 27 131q28 56 68 80q78 48 146 55l29 2h1018q76 0 131 -28q55 -29 80 -67q50 -77 55 -145l2 -28v-555z" />
    <glyph glyph-name="Zeta" unicode="&#x396;" horiz-adv-x="2048" 
d="M1368 725q0 41 32 41t34 -41v-35h-66v35zM1186 729v-182q0 -14 -8 -23q-4 -10 -17 -10q-24 5 -37 18v222l19 12l14 2q29 0 29 -39zM848 461q43 0 84 43v-39h72v354h-72v-268q-27 -27 -41 -27q-13 0 -17 4t-4 19v272h-71v-297q0 -61 49 -61zM1505 582h-71v-15
q0 -27 -9 -43q-18 -6 -31 -6q-26 0 -26 49v66h137v92q1 49 -25 77t-73 28t-82 -29q-29 -33 -29 -76v-160q0 -53 27 -83t74 -29q110 0 108 112v17zM1124 944h-67v-479h67v29q2 -2 33 -27q10 -6 41 -6q59 0 59 78v198q0 45 -18 64q-16 23 -48 23t-67 -33v153zM766 944h-244
v-67h82v-412h80v412h82v67zM469 1030h1110q92 0 158 -66t65 -155v-227q0 -90 -66 -156t-157 -66h-1110q-92 0 -158 66t-65 156v227q0 90 65 156q66 65 158 65zM981 1249q0 -32 33 -32q14 0 24 10q11 6 11 22v215q0 12 -11 21q-12 8 -24 8t-25 -8q-8 -12 -8 -21v-215z
M1276 1249q0 -24 16 -24q8 0 27 6q10 8 24 22v297h78v-391h-78v43q-20 -27 -47 -35q-26 -14 -48 -14t-42 16q-10 25 -10 56v325h80v-301zM899 1260v200q0 45 33 73t83 28t85 -29q33 -33 33 -76v-201q0 -49 -34 -77t-88 -29q-54 0 -79 29q-33 31 -33 82zM788 1159h-90v209
l-108 322h90l57 -211h8l58 211h88l-103 -312v-219z" />
    <glyph glyph-name="Eta" unicode="&#x397;" horiz-adv-x="2048" 
d="M1083 1802v-395h371v-244h-371v-397q0 -135 15 -176q18 -37 55 -60q53 -29 117 -28q119 0 233 73v-243q-92 -45 -178 -68q-100 -18 -184 -18t-176 28t-142 76q-63 50 -83 104t-21 164v545h-172v223q279 84 315 416h221z" />
    <glyph glyph-name="Theta" unicode="&#x398;" horiz-adv-x="2048" 
d="M1292 301q-44 0 -118 34q-144 67 -296 -1q-75 -33 -120 -33q-133 0 -269 215q-90 133 -130 285q-39 153 -27 281t67 216q61 90 149 142t164 51q76 0 170 -32t139 -32q46 0 135 32t167 32t159 -42t140 -116q-127 -71 -165 -199q-37 -128 21 -248t187 -169
q-45 -100 -100 -189q-147 -227 -273 -227zM1217 1606q-45 -55 -111 -89t-129 -32q-25 121 74 244q41 53 109 88t132 41q19 -125 -75 -252z" />
    <glyph glyph-name="Iota" unicode="&#x399;" horiz-adv-x="2048" 
d="M813 850q0 116 -156 119h-239v-258h237q57 0 97 16q61 33 61 123zM1426 1122q-68 0 -105 -43q-39 -32 -49 -108h317q-4 75 -49 113q-46 38 -114 38zM1077 890q0 192 101 286q96 96 254 96q88 0 165 -31q76 -35 121 -104q47 -61 58 -148q8 -33 8 -143h-516q0 -104 71 -148
q49 -29 105 -28q103 0 139 84h191q-6 -66 -70 -129q-94 -105 -252 -105t-266 89q-109 89 -109 281zM655 1126q140 0 140 107q0 68 -52 90q-43 14 -114 14h-211v-211h237zM1632 1341h-411v121h411v-121zM1016 836q0 -86 -35 -144t-76 -86q-33 -29 -106 -51q-72 -10 -137 -10
h-435v960h467q178 0 248 -104q43 -57 43 -146q0 -144 -115 -194q146 -60 146 -225z" />
    <glyph glyph-name="Kappa" unicode="&#x39a;" horiz-adv-x="2048" 
d="M1223 1311q-59 0 -115 -27q119 375 440 363q238 -6 228 -308q-12 -227 -320 -620q-313 -412 -534 -412q-135 0 -234 250q-51 205 -124 458t-150 253q-19 0 -123 -72l-72 92q70 61 225 205q158 131 230 139q185 16 226 -251q42 -267 61 -355q55 -236 114 -235
q53 -1 149 155t103 232q14 133 -104 133z" />
    <glyph glyph-name="Lambda" unicode="&#x39b;" horiz-adv-x="2048" 
d="M1802 1026q0 -140 -100 -242t-242 -102t-241 101q-101 101 -101 241t100 242t242 102q141 0 242 -100q100 -101 100 -242zM246 1024q0 140 101 242t241 102t242 -102t102 -241t-102 -241t-241 -102q-140 0 -242 101q-101 101 -101 241z" />
    <glyph glyph-name="Mu" unicode="&#x39c;" horiz-adv-x="2048" 
 />
    <glyph glyph-name="Nu" unicode="&#x39d;" horiz-adv-x="2048" 
 />
    <glyph glyph-name="Xi" unicode="&#x39e;" horiz-adv-x="2048" 
d="M623 387h-304v973h304v-973zM1835 387h-344v502q0 103 -43 163t-129 60q-111 0 -166 -119q-6 -20 -6 -78v-528h-340q2 889 0 973h340v-156q18 58 101 110t204 52q170 0 276 -112t107 -324v-543zM463 1481q-84 0 -134 47t-50 120q0 74 51 122t134 48t132 -48t51 -122
t-49 -120q-51 -47 -135 -47z" />
    <glyph glyph-name="Omicron" unicode="&#x39f;" horiz-adv-x="2048" 
d="M768 645h551q41 0 67 28q26 27 27 65q0 38 -27 66t-67 27h-551q-39 1 -67 -27q-27 -28 -27 -66t28 -66t66 -27zM1040 1395h-272q-39 0 -67 -28q-27 -28 -27 -66q0 -37 28 -65t66 -28h272q37 0 65 28t28 66t-28 65q-28 28 -65 28zM1327 240h-567q-201 0 -345 145t-145 346
v574q0 201 144 346t346 145h344q102 -12 218 -88t163 -180q2 -6 7 -16t11 -24t8 -24t8 -32t12 -97q7 -75 36 -106q20 -19 111 -23t104 -12l22 -18l11 -25l4 -23v-397q-3 -203 -147 -347t-345 -144z" />
    <glyph glyph-name="Pi" unicode="&#x3a0;" horiz-adv-x="2048" 
d="M1024 360q137 0 258 52q-18 186 -139 506h-4q-111 -38 -205 -96t-180 -142t-123 -150l-15 -28l-14 10q184 -152 422 -152zM1397 473q113 76 187 193q75 117 95 254q-211 59 -411 28q102 -282 129 -475zM360 1047v-23q0 -252 170 -444q8 12 22 34t65 85q104 129 261 229
q93 59 193 92l25 8q-18 45 -54 111q-311 -92 -682 -92zM1225 1053q193 30 463 -21q0 231 -152 416q0 -6 -34 -45t-126 -106t-209 -115l43 -92zM741 1626q-141 -68 -237 -190t-129 -275q309 0 614 82q-96 169 -171 274t-77 109zM1024 1688q-92 0 -158 -19q29 -29 115 -161
t137 -226q111 41 197 102q87 60 117 96t30 42q-182 166 -438 166zM1024 246q-324 0 -551 227t-227 551t227 551t551 227t551 -227t227 -551t-227 -551t-551 -227z" />
    <glyph glyph-name="Rho" unicode="&#x3a1;" horiz-adv-x="2048" 
d="M1314 1186q44 0 77 33q51 61 6 153q-90 164 -369 164q-180 0 -296 -74t-116 -209q0 -170 175 -239q59 -29 194 -62q96 -16 135 -32q109 -31 109 -115q1 -61 -59 -96t-145 -35t-134 34t-78 109q-37 86 -108 86q-45 0 -78 -29q-33 -30 -33 -80t51 -124q111 -162 387 -162
q141 0 230 39q203 86 202 280q0 152 -114 220q-43 35 -125 57q-72 25 -164 43l-105 24q-119 35 -118 101q0 51 51 78q51 26 125 26t116 -26t68 -74q26 -50 48 -70q24 -20 68 -20zM1032 1759q307 0 524 -217t218 -524q0 -88 -15 -162q43 -86 43 -190q0 -176 -127 -304
t-303 -126q-109 0 -205 51q-66 -12 -135 -13q-307 0 -525 218t-218 526q0 63 18 145q-61 104 -61 219q0 178 126 304t304 126q119 0 229 -63q68 10 127 10z" />
    <glyph glyph-name="Sigma" unicode="&#x3a3;" horiz-adv-x="2048" 
d="M1556 545v104l62 -6l53 -4l-14 -100l-49 6h-52zM1575 1147q4 0 53 -5t94 -9t54 -7l-109 -419l-92 10v430zM1178 612q98 0 110 -2l-4 -67h-358q-33 0 -161 -2t-159 -2l12 63q176 0 201 27q10 16 9 124q-1 109 -8 139t-172 232t-224 250h-205v92h692l4 -4l-4 -16v-72h-206
q55 -80 163 -223t119 -158l279 254h-164l-25 94h609l-48 -67l-16 -27h-113l-34 -10q-33 -7 -214 -153t-198 -191q-2 -14 0 -132t6 -145q11 -4 109 -4z" />
    <glyph glyph-name="Tau" unicode="&#x3a4;" horiz-adv-x="2048" 
d="M1350 838q125 0 272 51l-139 -486q-164 -68 -293 -67q-57 0 -131 26t-119 52l-45 26l143 498q125 -100 312 -100zM676 1096q102 0 209 -58l67 -34l-149 -510q-156 100 -280 100t-277 -64l143 502l51 17q104 39 207 47h29zM1382 952q-168 0 -311 101l148 501
q129 -104 307 -104q131 0 276 66l-143 -496q-152 -68 -277 -68zM698 1219q-109 0 -276 -66l143 498q157 61 249 61t151 -17t133 -61l26 -14l-147 -502q-143 96 -275 101h-4z" />
    <glyph glyph-name="Upsilon" unicode="&#x3a5;" horiz-adv-x="2048" 
d="M393 549l92 -53q15 -8 15 -20t-15 -19l-116 -82q-29 -18 -29 16l16 141q8 37 37 17zM1602 520q92 47 117 -25t20 -143l-2 -28q-5 18 -63 43t-81 53q-36 55 9 100zM1573 729l43 -86q18 -33 -14 -53l-41 -23q-33 -20 -54 11l-57 90q-18 35 14 53l54 27q32 18 55 -19z
M1751 1145q33 0 33 -33v-207q0 -14 -9 -25t-24 -12h-176q0 20 -10 29l-33 68l-96 180h315zM981 1145h143q102 -225 129 -277h-430zM260 868q-14 0 -23 12t-10 25v207q0 33 33 33h367l-158 -277h-209zM999 1307l-434 -758q-18 -29 -51 -10l-92 53q-31 16 -10 47l432 756
q6 14 21 18t26 -4l96 -53q30 -20 12 -49zM1507 868v-4q16 -26 -2 -50t-53 -39t-66 3q-27 12 -123 222q-97 210 -149 341q-190 414 -147 435q14 8 52 -45t101 -163t100 -170t191 -343v-4l10 -17v-4l11 -14l4 -8z" />
    <glyph glyph-name="Phi" unicode="&#x3a6;" horiz-adv-x="2048" 
d="M1636 450q0 -22 -16 -38l-66 -43q-264 -164 -555 -170h-18q-199 0 -361 86t-341 243q-19 14 -19 34t12 24q10 12 26 12t24 -4q141 -80 218 -119q78 -39 206 -79t249 -40h15q252 6 506 113l18 6l35 14q33 16 50 -1q17 -16 17 -38zM1487 573q0 16 18 31q37 23 58 29l14 8
l31 6q34 10 102 10t96 -28q11 -16 11 -39v-10q0 -53 -27 -122t-78 -116q-10 -10 -26 -10t-23 8q-12 8 -12 25l32 92q14 57 15 80v6q-20 8 -47 8l-60 -4l-65 -10h-6l-23 6q-10 14 -10 30zM1120 1067v96q-82 0 -145 -14q-147 -37 -148 -182q0 -66 32 -107t87 -41l29 4
q72 16 110 90l13 26q22 48 22 128zM1120 1350q0 111 -20 143q-35 51 -111 51h-14q-118 -9 -148 -119q-8 -37 -36 -39l-189 25q-37 10 -29 43q31 150 142 222t260 79h43q184 0 297 -100q55 -49 69 -114q6 -28 10 -39q8 -24 7 -90v-406q0 -82 37 -133q12 -17 37 -49t-2 -52
q-82 -74 -152 -129q-20 -14 -49 -2q-18 16 -40 35t-44 53t-27 41q-94 -100 -186 -127q-66 -16 -141 -16q-129 0 -213 79t-84 224q0 238 215 323q86 43 223 54q6 2 145 14v29z" />
    <glyph glyph-name="Chi" unicode="&#x3a7;" horiz-adv-x="2048" 
d="M1505 817v387q0 37 27 64q28 26 64 26t64 -26t28 -64v-387q0 -37 -28 -63t-65 -27q-37 1 -63 27t-27 63zM942 510v-191q0 -39 -26 -65t-64 -25q-38 0 -64 26q-27 26 -26 64v191q0 16 4 25h-68q-40 -1 -68 27t-28 69v663h842v-663q0 -41 -27 -69t-67 -27h-68l4 -25v-191
q0 -39 -28 -65t-64 -25q-36 0 -64 27q-27 27 -26 63v191l2 25h-168q4 -8 4 -25zM360 817v387q0 39 27 65q27 25 65 25t64 -26t25 -64v-387q0 -37 -26 -63q-25 -26 -63 -27q-38 1 -65 27t-27 63zM1204 1473q18 0 32 14q13 15 13 33t-13 30t-32 13q-43 0 -43 -43q1 -18 13 -32
t30 -15zM842 1473q18 0 32 14q14 15 14 33t-14 30q-35 29 -63 0q-12 -12 -12 -30t12 -33q13 -14 31 -14zM602 1356q0 94 58 174t157 127l-72 106q-4 1 -3 9q0 8 10 14t18 -8l39 -62l37 -49q86 33 178 33t180 -33l74 111q8 14 18 4q14 -6 9 -19l-58 -82l-14 -24
q96 -47 153 -127t58 -174h-842z" />
    <glyph glyph-name="Psi" unicode="&#x3a8;" horiz-adv-x="2048" 
d="M1651 1186h-232q31 -76 31 -162q0 -176 -125 -301t-301 -125t-301 125t-125 301q0 88 33 162h-234v-639q0 -61 44 -105t106 -45h954q61 0 106 44q44 44 44 106v639zM752 1012q0 -100 80 -181q80 -79 192 -79q113 0 193 80q79 80 79 178q0 100 -49 176q-84 111 -224 111
t-220 -111q-51 -74 -51 -174zM1358 1622v-264l264 4v260h-264zM547 1802h954q123 0 212 -89t89 -212v-954q0 -123 -89 -212t-212 -89h-954q-123 0 -212 89t-89 212v954q0 123 89 212t212 89z" />
    <glyph glyph-name="Omega" unicode="&#x3a9;" horiz-adv-x="2048" 
d="M246 797v372h172v-200h1212v200h172v-372h-1556z" />
    <glyph glyph-name="Iotadieresis" unicode="&#x3aa;" horiz-adv-x="2048" 
d="M997 872q0 76 -1 96t-6 47q-5 28 -18 38t-37 10t-41 -13t-20 -58q-4 -46 -4 -120t14 -113q14 -40 52 -40q39 0 50 39q11 38 11 114zM1243 913q38 1 51 19q12 18 18 28t6 30q1 18 2 30t0 32t-1 25q-90 -4 -112 -22t-21 -64q0 -78 57 -78zM309 981h250q0 79 -53 95
q-29 9 -74 9q-93 0 -109 -41q-14 -31 -14 -63zM549 862h282q-6 -74 -104 -110q-22 -15 -105 -31q-82 -16 -222 -16q-140 -1 -231 31t-116 78t-25 110t13 100q12 35 51 69q76 66 338 66q127 0 209 -16q78 -20 82 -23q73 -31 97 -81t18 -126h-527q0 -97 51 -117q27 -11 70 -12
q119 0 119 78zM1184 827q-27 0 -37 2q-106 20 -107 156q0 92 60 134t219 34v43q1 45 -17 58q-18 14 -50 14t-42 -20t-10 -60h-149q0 88 57 123q51 37 143 32h47l158 -290l14 -29v-94q0 -47 7 -96h-144l-6 67q-49 -74 -143 -74zM997 633q-88 0 -133 65v-55h-143v86h4
q6 0 10 4q53 23 78 53q31 31 37 76q0 18 -19 19h-110v14h115q18 0 18 14q4 84 -18 133q-23 61 -109 93l-6 4v215h149l4 -258q44 53 110 53t99 -21q-61 -52 -61 -143l6 -65l12 -25q27 -68 107 -82q-12 -180 -150 -180zM1731 700h-201v244l-246 463h215l143 -297l150 297h205
l-266 -463v-244z" />
    <glyph glyph-name="Upsilondieresis" unicode="&#x3ab;" horiz-adv-x="2048" 
d="M705 686h1017q-86 -184 -254 -301t-372 -135h-144q-123 8 -247 63v373zM623 1026v-666q-225 135 -320 377q4 3 156 141t164 148zM1802 1024q0 -131 -43 -256h-334v918q177 -104 277 -280t100 -382zM246 1024q0 221 113 407q114 185 311 283q10 -6 293 -264
q-8 -10 -339 -312t-350 -315q-28 119 -28 201zM1348 1733v-521q-30 27 -306 277t-290 262q134 49 290 49t306 -67z" />
    <glyph glyph-name="alphatonos" unicode="&#x3ac;" horiz-adv-x="2048" 
 />
    <glyph glyph-name="epsilontonos" unicode="&#x3ad;" horiz-adv-x="2048" 
 />
    <glyph glyph-name="etatonos" unicode="&#x3ae;" horiz-adv-x="2048" 
d="M1722 1389v-727h-202v727h202zM854 901h-127v328l283 160l94 -101l-250 -147v-240zM1374 1436l-270 178l-516 -287v-565l516 -287l270 187l107 -187l-377 -239l-713 378v822l713 379l377 -201z" />
    <glyph glyph-name="iotatonos" unicode="&#x3af;" horiz-adv-x="2048" 
 />
    <glyph glyph-name="upsilondieresistonos" unicode="&#x3b0;" horiz-adv-x="2048" 
 />
    <glyph glyph-name="alpha" unicode="&#x3b1;" horiz-adv-x="2048" 
d="M1069 1026q68 0 135 43q6 4 47 33q61 61 80 135q33 117 -55 180q-45 29 -100 29h-222l-100 -420h215zM1346 1761q117 0 221 -52t162 -153q41 -80 45 -153t-13 -166q-43 -188 -162 -307q-184 -193 -469 -197h-342l-110 -510h-459l344 1538h783z" />
    <glyph glyph-name="beta" unicode="&#x3b2;" horiz-adv-x="2048" 
d="M778 874l-106 220q-143 -96 -144 -220q0 -37 13 -55l2 -8zM301 803q0 297 309 420l-94 186l223 25l76 -150h14q187 29 315 29t261 -31t212 -75q163 -91 218 -165l23 -30l-713 -209l-166 338q37 6 97 6t122 -10l72 -129l243 63q-113 84 -303 123q-74 14 -154 14t-192 -28
l197 -398l-713 -209q-47 100 -47 230z" />
    <glyph glyph-name="gamma" unicode="&#x3b3;" horiz-adv-x="2048" 
d="M1802 760l-223 -389l-2 -9h-1018l10 23l211 369l4 6h1018zM985 1288l-496 -860l-14 -22l-10 22l-215 369l-4 6l495 858l15 20l14 -20l211 -367zM848 1706l-14 23h458l500 -857l10 -22l-24 -4h-435z" />
    <glyph glyph-name="delta" unicode="&#x3b4;" horiz-adv-x="2048" 
d="M1737 311v713h-713v-713h713zM279 1802h1490q33 0 33 -33v-1490q0 -33 -33 -33h-1490q-33 0 -33 33v1490q0 33 33 33zM1024 1024v713h-713v-713h713z" />
    <glyph glyph-name="epsilon" unicode="&#x3b5;" horiz-adv-x="2048" 
d="M528 735q84 0 146 -57q61 -66 61 -150t-61 -143q-62 -59 -146 -59t-145 59t-61 143t61 150q61 57 145 57zM322 1053v295q211 0 398 -80t327 -221q301 -301 301 -725h-297q0 307 -216 519t-513 212zM322 1581v297q315 0 599 -120t502 -335q215 -219 335 -503t120 -598
h-297q0 256 -99 489q-199 468 -671 671q-233 99 -489 99z" />
    <glyph glyph-name="zeta" unicode="&#x3b6;" horiz-adv-x="2048" 
d="M1370 838q104 0 181 -77t77 -183t-77 -184t-183 -77q-106 0 -183 77t-77 184q0 27 6 51l-448 219q-80 -84 -188 -84t-186 77q-77 77 -77 183t77 183q78 77 186 77t188 -84l448 219q-6 25 -6 51q0 106 77 184t183 77q106 0 183 -77q77 -78 77 -184t-77 -183t-181 -77
t-186 78l-453 -221q4 -29 4 -43t-4 -43l453 -221q82 78 186 78z" />
    <glyph glyph-name="eta" unicode="&#x3b7;" horiz-adv-x="2048" 
 />
    <glyph glyph-name="theta" unicode="&#x3b8;" horiz-adv-x="2048" 
 />
    <glyph glyph-name="iota" unicode="&#x3b9;" horiz-adv-x="2048" 
 />
    <glyph glyph-name="kappa" unicode="&#x3ba;" horiz-adv-x="2048" 
 />
    <glyph glyph-name="lambda" unicode="&#x3bb;" horiz-adv-x="2048" 
 />
    <glyph glyph-name="mu" unicode="&#x3bc;" horiz-adv-x="2048" 
 />
    <glyph glyph-name="nu" unicode="&#x3bd;" horiz-adv-x="2048" 
 />
    <glyph glyph-name="xi" unicode="&#x3be;" horiz-adv-x="2048" 
 />
    <glyph glyph-name="omicron" unicode="&#x3bf;" horiz-adv-x="2048" 
 />
    <glyph glyph-name="pi" unicode="&#x3c0;" horiz-adv-x="2048" 
 />
    <glyph glyph-name="rho" unicode="&#x3c1;" horiz-adv-x="2048" 
 />
    <glyph glyph-name="sigmafinal" unicode="&#x3c2;" horiz-adv-x="2048" 
 />
    <glyph glyph-name="sigma" unicode="&#x3c3;" horiz-adv-x="2048" 
 />
    <glyph glyph-name="tau" unicode="&#x3c4;" horiz-adv-x="2048" 
 />
    <glyph glyph-name="upsilon" unicode="&#x3c5;" horiz-adv-x="2048" 
 />
    <glyph glyph-name="phi" unicode="&#x3c6;" horiz-adv-x="2048" 
 />
    <glyph glyph-name="chi" unicode="&#x3c7;" horiz-adv-x="2048" 
 />
    <glyph glyph-name="psi" unicode="&#x3c8;" horiz-adv-x="2048" 
 />
    <glyph glyph-name="omega" unicode="&#x3c9;" horiz-adv-x="2048" 
 />
    <glyph glyph-name="iotadieresis" unicode="&#x3ca;" horiz-adv-x="2048" 
 />
    <glyph glyph-name="upsilondieresis" unicode="&#x3cb;" horiz-adv-x="2048" 
 />
    <glyph glyph-name="omicrontonos" unicode="&#x3cc;" horiz-adv-x="2048" 
 />
    <glyph glyph-name="upsilontonos" unicode="&#x3cd;" horiz-adv-x="2048" 
 />
    <glyph glyph-name="omegatonos" unicode="&#x3ce;" horiz-adv-x="2048" 
 />
    <glyph glyph-name="uni03D8" unicode="&#x3d8;" 
 />
    <glyph glyph-name="uni03D9" unicode="&#x3d9;" 
 />
    <glyph glyph-name="Stigma" unicode="&#x3da;" 
 />
    <glyph glyph-name="uni03DB" unicode="&#x3db;" 
 />
    <glyph glyph-name="Digamma" unicode="&#x3dc;" 
 />
    <glyph glyph-name="uni03DD" unicode="&#x3dd;" 
 />
    <glyph glyph-name="Koppa" unicode="&#x3de;" 
 />
    <glyph glyph-name="uni03DF" unicode="&#x3df;" 
 />
    <glyph glyph-name="uni03E0" unicode="&#x3e0;" 
 />
    <glyph glyph-name="uni03E1" unicode="&#x3e1;" 
 />
    <glyph glyph-name="uni03F7" unicode="&#x3f7;" 
 />
    <glyph glyph-name="uni03F8" unicode="&#x3f8;" 
 />
    <glyph glyph-name="uni03FA" unicode="&#x3fa;" 
 />
    <glyph glyph-name="uni03FB" unicode="&#x3fb;" 
 />
    <glyph glyph-name="uni0401" unicode="&#x401;" horiz-adv-x="2048" 
 />
    <glyph glyph-name="uni0402" unicode="&#x402;" horiz-adv-x="2048" 
 />
    <glyph glyph-name="uni0403" unicode="&#x403;" horiz-adv-x="2048" 
 />
    <glyph glyph-name="uni0404" unicode="&#x404;" horiz-adv-x="2048" 
 />
    <glyph glyph-name="uni0405" unicode="&#x405;" horiz-adv-x="2048" 
 />
    <glyph glyph-name="uni0406" unicode="&#x406;" horiz-adv-x="2048" 
 />
    <glyph glyph-name="uni0407" unicode="&#x407;" horiz-adv-x="2048" 
 />
    <glyph glyph-name="uni0408" unicode="&#x408;" horiz-adv-x="2048" 
 />
    <glyph glyph-name="uni0409" unicode="&#x409;" horiz-adv-x="2048" 
 />
    <glyph glyph-name="uni040A" unicode="&#x40a;" horiz-adv-x="2048" 
 />
    <glyph glyph-name="uni040B" unicode="&#x40b;" horiz-adv-x="2048" 
 />
    <glyph glyph-name="uni040C" unicode="&#x40c;" horiz-adv-x="2048" 
 />
    <glyph glyph-name="uni040E" unicode="&#x40e;" horiz-adv-x="2048" 
 />
    <glyph glyph-name="uni040F" unicode="&#x40f;" horiz-adv-x="2048" 
 />
    <glyph glyph-name="uni0410" unicode="&#x410;" horiz-adv-x="2048" 
 />
    <glyph glyph-name="uni0411" unicode="&#x411;" horiz-adv-x="2048" 
 />
    <glyph glyph-name="uni0412" unicode="&#x412;" horiz-adv-x="2048" 
 />
    <glyph glyph-name="uni0413" unicode="&#x413;" horiz-adv-x="2048" 
 />
    <glyph glyph-name="uni0414" unicode="&#x414;" horiz-adv-x="2048" 
 />
    <glyph glyph-name="uni0415" unicode="&#x415;" horiz-adv-x="2048" 
 />
    <glyph glyph-name="uni0416" unicode="&#x416;" horiz-adv-x="2048" 
 />
    <glyph glyph-name="uni0417" unicode="&#x417;" horiz-adv-x="2048" 
 />
    <glyph glyph-name="uni0419" unicode="&#x419;" horiz-adv-x="2048" 
 />
    <glyph glyph-name="uni041A" unicode="&#x41a;" horiz-adv-x="2048" 
 />
    <glyph glyph-name="uni041B" unicode="&#x41b;" horiz-adv-x="2048" 
 />
    <glyph glyph-name="uni041C" unicode="&#x41c;" horiz-adv-x="2048" 
 />
    <glyph glyph-name="uni041D" unicode="&#x41d;" horiz-adv-x="2048" 
 />
    <glyph glyph-name="uni041E" unicode="&#x41e;" horiz-adv-x="2048" 
 />
    <glyph glyph-name="uni041F" unicode="&#x41f;" horiz-adv-x="2048" 
 />
    <glyph glyph-name="uni0420" unicode="&#x420;" horiz-adv-x="2048" 
 />
    <glyph glyph-name="uni0421" unicode="&#x421;" horiz-adv-x="2048" 
 />
    <glyph glyph-name="uni0422" unicode="&#x422;" horiz-adv-x="2048" 
 />
    <glyph glyph-name="uni0423" unicode="&#x423;" horiz-adv-x="2048" 
 />
    <glyph glyph-name="uni0424" unicode="&#x424;" horiz-adv-x="2048" 
 />
    <glyph glyph-name="uni0425" unicode="&#x425;" horiz-adv-x="2048" 
 />
    <glyph glyph-name="uni0426" unicode="&#x426;" horiz-adv-x="2048" 
 />
    <glyph glyph-name="uni0427" unicode="&#x427;" horiz-adv-x="2048" 
 />
    <glyph glyph-name="uni0428" unicode="&#x428;" horiz-adv-x="2048" 
 />
    <glyph glyph-name="uni0429" unicode="&#x429;" horiz-adv-x="2048" 
 />
    <glyph glyph-name="uni042A" unicode="&#x42a;" horiz-adv-x="2048" 
 />
    <glyph glyph-name="uni042B" unicode="&#x42b;" horiz-adv-x="2048" 
 />
    <glyph glyph-name="uni042C" unicode="&#x42c;" horiz-adv-x="2048" 
 />
    <glyph glyph-name="uni042D" unicode="&#x42d;" horiz-adv-x="2048" 
 />
    <glyph glyph-name="uni042E" unicode="&#x42e;" horiz-adv-x="2048" 
 />
    <glyph glyph-name="uni042F" unicode="&#x42f;" horiz-adv-x="2048" 
 />
    <glyph glyph-name="uni0430" unicode="&#x430;" horiz-adv-x="2048" 
 />
    <glyph glyph-name="uni0431" unicode="&#x431;" horiz-adv-x="2048" 
 />
    <glyph glyph-name="uni0432" unicode="&#x432;" horiz-adv-x="2048" 
 />
    <glyph glyph-name="uni0433" unicode="&#x433;" horiz-adv-x="2048" 
 />
    <glyph glyph-name="uni0434" unicode="&#x434;" horiz-adv-x="2048" 
 />
    <glyph glyph-name="uni0435" unicode="&#x435;" horiz-adv-x="2048" 
 />
    <glyph glyph-name="uni0436" unicode="&#x436;" horiz-adv-x="2048" 
 />
    <glyph glyph-name="uni0437" unicode="&#x437;" horiz-adv-x="2048" 
 />
    <glyph glyph-name="uni0439" unicode="&#x439;" horiz-adv-x="2048" 
 />
    <glyph glyph-name="uni043A" unicode="&#x43a;" horiz-adv-x="2048" 
 />
    <glyph glyph-name="uni043B" unicode="&#x43b;" horiz-adv-x="2048" 
 />
    <glyph glyph-name="uni043C" unicode="&#x43c;" horiz-adv-x="2048" 
 />
    <glyph glyph-name="uni043D" unicode="&#x43d;" horiz-adv-x="2048" 
 />
    <glyph glyph-name="uni043E" unicode="&#x43e;" horiz-adv-x="2048" 
 />
    <glyph glyph-name="uni043F" unicode="&#x43f;" horiz-adv-x="2048" 
 />
    <glyph glyph-name="uni0440" unicode="&#x440;" horiz-adv-x="2048" 
 />
    <glyph glyph-name="uni0441" unicode="&#x441;" horiz-adv-x="2048" 
 />
    <glyph glyph-name="uni0442" unicode="&#x442;" horiz-adv-x="2048" 
 />
    <glyph glyph-name="uni0443" unicode="&#x443;" horiz-adv-x="2048" 
 />
    <glyph glyph-name="uni0444" unicode="&#x444;" horiz-adv-x="2048" 
 />
    <glyph glyph-name="uni0445" unicode="&#x445;" horiz-adv-x="2048" 
 />
    <glyph glyph-name="uni0446" unicode="&#x446;" horiz-adv-x="2048" 
 />
    <glyph glyph-name="uni0447" unicode="&#x447;" horiz-adv-x="2048" 
 />
    <glyph glyph-name="uni0448" unicode="&#x448;" horiz-adv-x="2048" 
 />
    <glyph glyph-name="uni0449" unicode="&#x449;" horiz-adv-x="2048" 
 />
    <glyph glyph-name="uni044A" unicode="&#x44a;" horiz-adv-x="2048" 
 />
    <glyph glyph-name="uni044B" unicode="&#x44b;" horiz-adv-x="2048" 
 />
    <glyph glyph-name="uni044C" unicode="&#x44c;" horiz-adv-x="2048" 
 />
    <glyph glyph-name="uni044D" unicode="&#x44d;" horiz-adv-x="2048" 
 />
    <glyph glyph-name="uni044E" unicode="&#x44e;" horiz-adv-x="2048" 
 />
    <glyph glyph-name="uni044F" unicode="&#x44f;" horiz-adv-x="2048" 
 />
    <glyph glyph-name="uni0451" unicode="&#x451;" horiz-adv-x="2048" 
 />
    <glyph glyph-name="uni0452" unicode="&#x452;" horiz-adv-x="2048" 
 />
    <glyph glyph-name="uni0453" unicode="&#x453;" horiz-adv-x="2048" 
 />
    <glyph glyph-name="uni0454" unicode="&#x454;" horiz-adv-x="2048" 
 />
    <glyph glyph-name="uni0455" unicode="&#x455;" horiz-adv-x="2048" 
 />
    <glyph glyph-name="uni0456" unicode="&#x456;" horiz-adv-x="2048" 
 />
    <glyph glyph-name="uni0457" unicode="&#x457;" horiz-adv-x="2048" 
 />
    <glyph glyph-name="uni0458" unicode="&#x458;" horiz-adv-x="2048" 
 />
    <glyph glyph-name="uni0459" unicode="&#x459;" horiz-adv-x="2048" 
 />
    <glyph glyph-name="uni045A" unicode="&#x45a;" horiz-adv-x="2048" 
 />
    <glyph glyph-name="uni045B" unicode="&#x45b;" horiz-adv-x="2048" 
 />
    <glyph glyph-name="uni045C" unicode="&#x45c;" horiz-adv-x="2048" 
 />
    <glyph glyph-name="uni045E" unicode="&#x45e;" horiz-adv-x="2048" 
 />
    <glyph glyph-name="uni045F" unicode="&#x45f;" horiz-adv-x="2048" 
 />
    <glyph glyph-name="uni0462" unicode="&#x462;" horiz-adv-x="2048" 
 />
    <glyph glyph-name="uni0463" unicode="&#x463;" horiz-adv-x="2048" 
 />
    <glyph glyph-name="uni0472" unicode="&#x472;" horiz-adv-x="2048" 
 />
    <glyph glyph-name="uni0473" unicode="&#x473;" horiz-adv-x="2048" 
 />
    <glyph glyph-name="uni0474" unicode="&#x474;" horiz-adv-x="2048" 
 />
    <glyph glyph-name="uni0475" unicode="&#x475;" horiz-adv-x="2048" 
 />
    <glyph glyph-name="uni0490" unicode="&#x490;" horiz-adv-x="2048" 
 />
    <glyph glyph-name="uni0491" unicode="&#x491;" horiz-adv-x="2048" 
 />
    <glyph glyph-name="uni0492" unicode="&#x492;" horiz-adv-x="2048" 
 />
    <glyph glyph-name="uni0493" unicode="&#x493;" horiz-adv-x="2048" 
 />
    <glyph glyph-name="uni0494" unicode="&#x494;" horiz-adv-x="2048" 
 />
    <glyph glyph-name="uni0495" unicode="&#x495;" horiz-adv-x="2048" 
 />
    <glyph glyph-name="uni0496" unicode="&#x496;" horiz-adv-x="2048" 
 />
    <glyph glyph-name="uni0497" unicode="&#x497;" horiz-adv-x="2048" 
 />
    <glyph glyph-name="uni0498" unicode="&#x498;" horiz-adv-x="2048" 
 />
    <glyph glyph-name="uni0499" unicode="&#x499;" horiz-adv-x="2048" 
 />
    <glyph glyph-name="uni049A" unicode="&#x49a;" horiz-adv-x="2048" 
 />
    <glyph glyph-name="uni049B" unicode="&#x49b;" horiz-adv-x="2048" 
 />
    <glyph glyph-name="uni049C" unicode="&#x49c;" horiz-adv-x="2048" 
 />
    <glyph glyph-name="uni049D" unicode="&#x49d;" horiz-adv-x="2048" 
 />
    <glyph glyph-name="uni049E" unicode="&#x49e;" horiz-adv-x="2048" 
 />
    <glyph glyph-name="uni049F" unicode="&#x49f;" horiz-adv-x="2048" 
 />
    <glyph glyph-name="uni04A0" unicode="&#x4a0;" horiz-adv-x="2048" 
 />
    <glyph glyph-name="uni04A1" unicode="&#x4a1;" horiz-adv-x="2048" 
 />
    <glyph glyph-name="uni04A2" unicode="&#x4a2;" horiz-adv-x="2048" 
 />
    <glyph glyph-name="uni04A3" unicode="&#x4a3;" horiz-adv-x="2048" 
 />
    <glyph glyph-name="uni04A4" unicode="&#x4a4;" horiz-adv-x="2048" 
 />
    <glyph glyph-name="uni04A5" unicode="&#x4a5;" horiz-adv-x="2048" 
 />
    <glyph glyph-name="uni04A6" unicode="&#x4a6;" horiz-adv-x="2048" 
 />
    <glyph glyph-name="uni04A7" unicode="&#x4a7;" horiz-adv-x="2048" 
 />
    <glyph glyph-name="uni04A8" unicode="&#x4a8;" horiz-adv-x="2048" 
 />
    <glyph glyph-name="uni04A9" unicode="&#x4a9;" horiz-adv-x="2048" 
 />
    <glyph glyph-name="uni04AA" unicode="&#x4aa;" horiz-adv-x="2048" 
 />
    <glyph glyph-name="uni04AB" unicode="&#x4ab;" horiz-adv-x="2048" 
 />
    <glyph glyph-name="uni04AC" unicode="&#x4ac;" horiz-adv-x="2048" 
 />
    <glyph glyph-name="uni04AD" unicode="&#x4ad;" horiz-adv-x="2048" 
 />
    <glyph glyph-name="uni04AE" unicode="&#x4ae;" horiz-adv-x="2048" 
 />
    <glyph glyph-name="uni04AF" unicode="&#x4af;" horiz-adv-x="2048" 
 />
    <glyph glyph-name="uni04B0" unicode="&#x4b0;" horiz-adv-x="2048" 
 />
    <glyph glyph-name="uni04B1" unicode="&#x4b1;" horiz-adv-x="2048" 
 />
    <glyph glyph-name="uni04B2" unicode="&#x4b2;" horiz-adv-x="2048" 
 />
    <glyph glyph-name="uni04B3" unicode="&#x4b3;" horiz-adv-x="2048" 
 />
    <glyph glyph-name="uni04B4" unicode="&#x4b4;" horiz-adv-x="2048" 
 />
    <glyph glyph-name="uni04B5" unicode="&#x4b5;" horiz-adv-x="2048" 
 />
    <glyph glyph-name="uni04B6" unicode="&#x4b6;" horiz-adv-x="2048" 
 />
    <glyph glyph-name="uni04B7" unicode="&#x4b7;" horiz-adv-x="2048" 
 />
    <glyph glyph-name="uni04B8" unicode="&#x4b8;" horiz-adv-x="2048" 
 />
    <glyph glyph-name="uni04B9" unicode="&#x4b9;" horiz-adv-x="2048" 
 />
    <glyph glyph-name="uni04BA" unicode="&#x4ba;" horiz-adv-x="2048" 
 />
    <glyph glyph-name="uni04BB" unicode="&#x4bb;" horiz-adv-x="2048" 
 />
    <glyph glyph-name="uni04BC" unicode="&#x4bc;" horiz-adv-x="2048" 
 />
    <glyph glyph-name="uni04BD" unicode="&#x4bd;" horiz-adv-x="2048" 
 />
    <glyph glyph-name="uni04BE" unicode="&#x4be;" horiz-adv-x="2048" 
 />
    <glyph glyph-name="uni04BF" unicode="&#x4bf;" horiz-adv-x="2048" 
 />
    <glyph glyph-name="uni04C0" unicode="&#x4c0;" horiz-adv-x="2048" 
 />
    <glyph glyph-name="uni04C1" unicode="&#x4c1;" horiz-adv-x="2048" 
 />
    <glyph glyph-name="uni04C2" unicode="&#x4c2;" horiz-adv-x="2048" 
 />
    <glyph glyph-name="uni04C3" unicode="&#x4c3;" horiz-adv-x="2048" 
 />
    <glyph glyph-name="uni04C4" unicode="&#x4c4;" horiz-adv-x="2048" 
 />
    <glyph glyph-name="uni04C5" unicode="&#x4c5;" horiz-adv-x="2048" 
 />
    <glyph glyph-name="uni04C6" unicode="&#x4c6;" horiz-adv-x="2048" 
 />
    <glyph glyph-name="uni04C7" unicode="&#x4c7;" horiz-adv-x="2048" 
 />
    <glyph glyph-name="uni04C8" unicode="&#x4c8;" horiz-adv-x="2048" 
 />
    <glyph glyph-name="uni04C9" unicode="&#x4c9;" horiz-adv-x="2048" 
 />
    <glyph glyph-name="uni04CA" unicode="&#x4ca;" horiz-adv-x="2048" 
 />
    <glyph glyph-name="uni04CB" unicode="&#x4cb;" horiz-adv-x="2048" 
 />
    <glyph glyph-name="uni04CC" unicode="&#x4cc;" horiz-adv-x="2048" 
 />
    <glyph glyph-name="uni04CD" unicode="&#x4cd;" horiz-adv-x="2048" 
 />
    <glyph glyph-name="uni04CE" unicode="&#x4ce;" horiz-adv-x="2048" 
 />
    <glyph glyph-name="uni04CF" unicode="&#x4cf;" horiz-adv-x="2048" 
 />
    <glyph glyph-name="uni04D0" unicode="&#x4d0;" horiz-adv-x="2048" 
 />
    <glyph glyph-name="uni04D1" unicode="&#x4d1;" horiz-adv-x="2048" 
 />
    <glyph glyph-name="uni04D2" unicode="&#x4d2;" horiz-adv-x="2048" 
 />
    <glyph glyph-name="uni04D3" unicode="&#x4d3;" horiz-adv-x="2048" 
 />
    <glyph glyph-name="uni04D4" unicode="&#x4d4;" horiz-adv-x="2048" 
 />
    <glyph glyph-name="uni04D5" unicode="&#x4d5;" horiz-adv-x="2048" 
 />
    <glyph glyph-name="uni04D6" unicode="&#x4d6;" horiz-adv-x="2048" 
 />
    <glyph glyph-name="uni04D7" unicode="&#x4d7;" horiz-adv-x="2048" 
 />
    <glyph glyph-name="uni04D8" unicode="&#x4d8;" horiz-adv-x="2048" 
 />
    <glyph glyph-name="uni04D9" unicode="&#x4d9;" horiz-adv-x="2048" 
 />
    <glyph glyph-name="uni04DA" unicode="&#x4da;" horiz-adv-x="2048" 
 />
    <glyph glyph-name="uni04DB" unicode="&#x4db;" horiz-adv-x="2048" 
 />
    <glyph glyph-name="uni04DC" unicode="&#x4dc;" horiz-adv-x="2048" 
 />
    <glyph glyph-name="uni04DD" unicode="&#x4dd;" horiz-adv-x="2048" 
 />
    <glyph glyph-name="uni04DE" unicode="&#x4de;" horiz-adv-x="2048" 
 />
    <glyph glyph-name="uni04DF" unicode="&#x4df;" horiz-adv-x="2048" 
 />
    <glyph glyph-name="uni04E0" unicode="&#x4e0;" horiz-adv-x="2048" 
 />
    <glyph glyph-name="uni04E1" unicode="&#x4e1;" horiz-adv-x="2048" 
 />
    <glyph glyph-name="uni04E2" unicode="&#x4e2;" horiz-adv-x="2048" 
 />
    <glyph glyph-name="uni04E3" unicode="&#x4e3;" horiz-adv-x="2048" 
 />
    <glyph glyph-name="uni04E4" unicode="&#x4e4;" horiz-adv-x="2048" 
 />
    <glyph glyph-name="uni04E5" unicode="&#x4e5;" horiz-adv-x="2048" 
 />
    <glyph glyph-name="uni04E6" unicode="&#x4e6;" horiz-adv-x="2048" 
 />
    <glyph glyph-name="uni04E7" unicode="&#x4e7;" horiz-adv-x="2048" 
 />
    <glyph glyph-name="uni04E8" unicode="&#x4e8;" horiz-adv-x="2048" 
 />
    <glyph glyph-name="uni04E9" unicode="&#x4e9;" horiz-adv-x="2048" 
 />
    <glyph glyph-name="uni04EA" unicode="&#x4ea;" horiz-adv-x="2048" 
 />
    <glyph glyph-name="uni04EB" unicode="&#x4eb;" horiz-adv-x="2048" 
 />
    <glyph glyph-name="uni04EC" unicode="&#x4ec;" horiz-adv-x="2048" 
 />
    <glyph glyph-name="uni04ED" unicode="&#x4ed;" horiz-adv-x="2048" 
 />
    <glyph glyph-name="uni04EE" unicode="&#x4ee;" horiz-adv-x="2048" 
 />
    <glyph glyph-name="uni04EF" unicode="&#x4ef;" horiz-adv-x="2048" 
 />
    <glyph glyph-name="uni04F0" unicode="&#x4f0;" horiz-adv-x="2048" 
 />
    <glyph glyph-name="uni04F1" unicode="&#x4f1;" horiz-adv-x="2048" 
 />
    <glyph glyph-name="uni04F2" unicode="&#x4f2;" horiz-adv-x="2048" 
 />
    <glyph glyph-name="uni04F3" unicode="&#x4f3;" horiz-adv-x="2048" 
 />
    <glyph glyph-name="uni04F4" unicode="&#x4f4;" horiz-adv-x="2048" 
 />
    <glyph glyph-name="uni04F5" unicode="&#x4f5;" horiz-adv-x="2048" 
 />
    <glyph glyph-name="uni04F6" unicode="&#x4f6;" horiz-adv-x="2048" 
 />
    <glyph glyph-name="uni04F7" unicode="&#x4f7;" horiz-adv-x="2048" 
 />
    <glyph glyph-name="uni04F8" unicode="&#x4f8;" horiz-adv-x="2048" 
 />
    <glyph glyph-name="uni04F9" unicode="&#x4f9;" horiz-adv-x="2048" 
 />
    <glyph glyph-name="uni04FC" unicode="&#x4fc;" horiz-adv-x="2048" 
 />
    <glyph glyph-name="uni04FD" unicode="&#x4fd;" horiz-adv-x="2048" 
 />
    <glyph glyph-name="uni0510" unicode="&#x510;" horiz-adv-x="2048" 
 />
    <glyph glyph-name="uni0511" unicode="&#x511;" horiz-adv-x="2048" 
 />
    <glyph glyph-name="uni0512" unicode="&#x512;" horiz-adv-x="2048" 
 />
    <glyph glyph-name="uni0513" unicode="&#x513;" horiz-adv-x="2048" 
 />
    <glyph glyph-name="uni051C" unicode="&#x51c;" horiz-adv-x="2048" 
 />
    <glyph glyph-name="uni051D" unicode="&#x51d;" horiz-adv-x="2048" 
 />
    <glyph glyph-name="uni0524" unicode="&#x524;" horiz-adv-x="2048" 
 />
    <glyph glyph-name="uni0525" unicode="&#x525;" horiz-adv-x="2048" 
 />
    <glyph glyph-name="uni0526" unicode="&#x526;" horiz-adv-x="2048" 
 />
    <glyph glyph-name="uni0527" unicode="&#x527;" horiz-adv-x="2048" 
 />
    <glyph glyph-name="uni1DC4" unicode="&#x1dc4;" horiz-adv-x="0" 
 />
    <glyph glyph-name="uni1DC5" unicode="&#x1dc5;" horiz-adv-x="0" 
 />
    <glyph glyph-name="uni1DC6" unicode="&#x1dc6;" horiz-adv-x="0" 
 />
    <glyph glyph-name="uni1DC7" unicode="&#x1dc7;" horiz-adv-x="0" 
 />
    <glyph glyph-name="Bdotbelow" unicode="&#x1e04;" 
 />
    <glyph glyph-name="bdotbelow" unicode="&#x1e05;" 
 />
    <glyph glyph-name="Ddotbelow" unicode="&#x1e0c;" 
 />
    <glyph glyph-name="ddotbelow" unicode="&#x1e0d;" 
 />
    <glyph glyph-name="Dlinebelow" unicode="&#x1e0e;" 
 />
    <glyph glyph-name="dlinebelow" unicode="&#x1e0f;" 
 />
    <glyph glyph-name="Dcircumflexbelow" unicode="&#x1e12;" 
 />
    <glyph glyph-name="dcircumflexbelow" unicode="&#x1e13;" 
 />
    <glyph glyph-name="Hdotbelow" unicode="&#x1e24;" 
 />
    <glyph glyph-name="hdotbelow" unicode="&#x1e25;" 
 />
    <glyph glyph-name="Idieresisacute" unicode="&#x1e2e;" 
 />
    <glyph glyph-name="idieresisacute" unicode="&#x1e2f;" 
 />
    <glyph glyph-name="Ldotbelow" unicode="&#x1e36;" 
 />
    <glyph glyph-name="ldotbelow" unicode="&#x1e37;" 
 />
    <glyph glyph-name="Lcircumflexbelow" unicode="&#x1e3c;" 
 />
    <glyph glyph-name="lcircumflexbelow" unicode="&#x1e3d;" 
 />
    <glyph glyph-name="Macute" unicode="&#x1e3e;" 
 />
    <glyph glyph-name="macute" unicode="&#x1e3f;" 
 />
    <glyph glyph-name="Ndotaccent" unicode="&#x1e44;" 
 />
    <glyph glyph-name="ndotaccent" unicode="&#x1e45;" 
 />
    <glyph glyph-name="Ndotbelow" unicode="&#x1e46;" 
 />
    <glyph glyph-name="ndotbelow" unicode="&#x1e47;" 
 />
    <glyph glyph-name="Ncircumflexbelow" unicode="&#x1e4a;" 
 />
    <glyph glyph-name="ncircumflexbelow" unicode="&#x1e4b;" 
 />
    <glyph glyph-name="Otildeacute" unicode="&#x1e4c;" 
 />
    <glyph glyph-name="otildeacute" unicode="&#x1e4d;" 
 />
    <glyph glyph-name="Omacrongrave" unicode="&#x1e50;" 
 />
    <glyph glyph-name="omacrongrave" unicode="&#x1e51;" 
 />
    <glyph glyph-name="Omacronacute" unicode="&#x1e52;" 
 />
    <glyph glyph-name="omacronacute" unicode="&#x1e53;" 
 />
    <glyph glyph-name="Sdotbelow" unicode="&#x1e62;" horiz-adv-x="2048" 
 />
    <glyph glyph-name="sdotbelow" unicode="&#x1e63;" 
 />
    <glyph glyph-name="Tdotbelow" unicode="&#x1e6c;" 
 />
    <glyph glyph-name="tdotbelow" unicode="&#x1e6d;" 
 />
    <glyph glyph-name="Tlinebelow" unicode="&#x1e6e;" 
 />
    <glyph glyph-name="tlinebelow" unicode="&#x1e6f;" 
 />
    <glyph glyph-name="Tcircumflexbelow" unicode="&#x1e70;" 
 />
    <glyph glyph-name="tcircumflexbelow" unicode="&#x1e71;" 
 />
    <glyph glyph-name="Wgrave" unicode="&#x1e80;" 
 />
    <glyph glyph-name="wgrave" unicode="&#x1e81;" 
 />
    <glyph glyph-name="Wacute" unicode="&#x1e82;" 
 />
    <glyph glyph-name="wacute" unicode="&#x1e83;" 
 />
    <glyph glyph-name="Wdieresis" unicode="&#x1e84;" 
 />
    <glyph glyph-name="wdieresis" unicode="&#x1e85;" 
 />
    <glyph glyph-name="Zdotbelow" unicode="&#x1e92;" 
 />
    <glyph glyph-name="zdotbelow" unicode="&#x1e93;" 
 />
    <glyph glyph-name="Adotbelow" unicode="&#x1ea0;" 
 />
    <glyph glyph-name="adotbelow" unicode="&#x1ea1;" 
 />
    <glyph glyph-name="Ahookabove" unicode="&#x1ea2;" 
 />
    <glyph glyph-name="ahookabove" unicode="&#x1ea3;" 
 />
    <glyph glyph-name="Acircumflexacute" unicode="&#x1ea4;" 
 />
    <glyph glyph-name="acircumflexacute" unicode="&#x1ea5;" 
 />
    <glyph glyph-name="Acircumflexgrave" unicode="&#x1ea6;" 
 />
    <glyph glyph-name="acircumflexgrave" unicode="&#x1ea7;" 
 />
    <glyph glyph-name="Acircumflexhookabove" unicode="&#x1ea8;" 
 />
    <glyph glyph-name="acircumflexhookabove" unicode="&#x1ea9;" 
 />
    <glyph glyph-name="Acircumflextilde" unicode="&#x1eaa;" 
 />
    <glyph glyph-name="acircumflextilde" unicode="&#x1eab;" 
 />
    <glyph glyph-name="Acircumflexdotbelow" unicode="&#x1eac;" 
 />
    <glyph glyph-name="acircumflexdotbelow" unicode="&#x1ead;" 
 />
    <glyph glyph-name="Abreveacute" unicode="&#x1eae;" 
 />
    <glyph glyph-name="abreveacute" unicode="&#x1eaf;" 
 />
    <glyph glyph-name="Abrevegrave" unicode="&#x1eb0;" 
 />
    <glyph glyph-name="abrevegrave" unicode="&#x1eb1;" 
 />
    <glyph glyph-name="Abrevehookabove" unicode="&#x1eb2;" 
 />
    <glyph glyph-name="abrevehookabove" unicode="&#x1eb3;" 
 />
    <glyph glyph-name="Abrevetilde" unicode="&#x1eb4;" 
 />
    <glyph glyph-name="abrevetilde" unicode="&#x1eb5;" 
 />
    <glyph glyph-name="Abrevedotbelow" unicode="&#x1eb6;" 
 />
    <glyph glyph-name="abrevedotbelow" unicode="&#x1eb7;" 
 />
    <glyph glyph-name="Edotbelow" unicode="&#x1eb8;" 
 />
    <glyph glyph-name="edotbelow" unicode="&#x1eb9;" 
 />
    <glyph glyph-name="Ehookabove" unicode="&#x1eba;" 
 />
    <glyph glyph-name="ehookabove" unicode="&#x1ebb;" 
 />
    <glyph glyph-name="Etilde" unicode="&#x1ebc;" 
 />
    <glyph glyph-name="etilde" unicode="&#x1ebd;" 
 />
    <glyph glyph-name="Ecircumflexacute" unicode="&#x1ebe;" 
 />
    <glyph glyph-name="ecircumflexacute" unicode="&#x1ebf;" 
 />
    <glyph glyph-name="Ecircumflexgrave" unicode="&#x1ec0;" 
 />
    <glyph glyph-name="ecircumflexgrave" unicode="&#x1ec1;" 
 />
    <glyph glyph-name="Ecircumflexhookabove" unicode="&#x1ec2;" 
 />
    <glyph glyph-name="ecircumflexhookabove" unicode="&#x1ec3;" 
 />
    <glyph glyph-name="Ecircumflextilde" unicode="&#x1ec4;" 
 />
    <glyph glyph-name="ecircumflextilde" unicode="&#x1ec5;" 
 />
    <glyph glyph-name="Ecircumflexdotbelow" unicode="&#x1ec6;" 
 />
    <glyph glyph-name="ecircumflexdotbelow" unicode="&#x1ec7;" 
 />
    <glyph glyph-name="Ihookabove" unicode="&#x1ec8;" 
 />
    <glyph glyph-name="ihookabove" unicode="&#x1ec9;" 
 />
    <glyph glyph-name="Idotbelow" unicode="&#x1eca;" 
 />
    <glyph glyph-name="idotbelow" unicode="&#x1ecb;" 
 />
    <glyph glyph-name="Odotbelow" unicode="&#x1ecc;" 
 />
    <glyph glyph-name="odotbelow" unicode="&#x1ecd;" 
 />
    <glyph glyph-name="Ohookabove" unicode="&#x1ece;" 
 />
    <glyph glyph-name="ohookabove" unicode="&#x1ecf;" 
 />
    <glyph glyph-name="Ocircumflexacute" unicode="&#x1ed0;" 
 />
    <glyph glyph-name="ocircumflexacute" unicode="&#x1ed1;" 
 />
    <glyph glyph-name="Ocircumflexgrave" unicode="&#x1ed2;" 
 />
    <glyph glyph-name="ocircumflexgrave" unicode="&#x1ed3;" 
 />
    <glyph glyph-name="Ocircumflexhookabove" unicode="&#x1ed4;" 
 />
    <glyph glyph-name="ocircumflexhookabove" unicode="&#x1ed5;" 
 />
    <glyph glyph-name="Ocircumflextilde" unicode="&#x1ed6;" 
 />
    <glyph glyph-name="ocircumflextilde" unicode="&#x1ed7;" 
 />
    <glyph glyph-name="Ocircumflexdotbelow" unicode="&#x1ed8;" 
 />
    <glyph glyph-name="ocircumflexdotbelow" unicode="&#x1ed9;" 
 />
    <glyph glyph-name="Ohornacute" unicode="&#x1eda;" 
 />
    <glyph glyph-name="ohornacute" unicode="&#x1edb;" 
 />
    <glyph glyph-name="Ohorngrave" unicode="&#x1edc;" 
 />
    <glyph glyph-name="ohorngrave" unicode="&#x1edd;" 
 />
    <glyph glyph-name="Ohornhookabove" unicode="&#x1ede;" 
 />
    <glyph glyph-name="ohornhookabove" unicode="&#x1edf;" 
 />
    <glyph glyph-name="Ohorntilde" unicode="&#x1ee0;" 
 />
    <glyph glyph-name="ohorntilde" unicode="&#x1ee1;" 
 />
    <glyph glyph-name="Ohorndotbelow" unicode="&#x1ee2;" 
 />
    <glyph glyph-name="ohorndotbelow" unicode="&#x1ee3;" 
 />
    <glyph glyph-name="Udotbelow" unicode="&#x1ee4;" 
 />
    <glyph glyph-name="udotbelow" unicode="&#x1ee5;" 
 />
    <glyph glyph-name="Uhookabove" unicode="&#x1ee6;" 
 />
    <glyph glyph-name="uhookabove" unicode="&#x1ee7;" 
 />
    <glyph glyph-name="Uhornacute" unicode="&#x1ee8;" 
 />
    <glyph glyph-name="uhornacute" unicode="&#x1ee9;" 
 />
    <glyph glyph-name="Uhorngrave" unicode="&#x1eea;" 
 />
    <glyph glyph-name="uhorngrave" unicode="&#x1eeb;" 
 />
    <glyph glyph-name="Uhornhookabove" unicode="&#x1eec;" 
 />
    <glyph glyph-name="uhornhookabove" unicode="&#x1eed;" 
 />
    <glyph glyph-name="Uhorntilde" unicode="&#x1eee;" 
 />
    <glyph glyph-name="uhorntilde" unicode="&#x1eef;" 
 />
    <glyph glyph-name="Uhorndotbelow" unicode="&#x1ef0;" 
 />
    <glyph glyph-name="uhorndotbelow" unicode="&#x1ef1;" 
 />
    <glyph glyph-name="Ygrave" unicode="&#x1ef2;" 
 />
    <glyph glyph-name="ygrave" unicode="&#x1ef3;" 
 />
    <glyph glyph-name="Ydotbelow" unicode="&#x1ef4;" 
 />
    <glyph glyph-name="ydotbelow" unicode="&#x1ef5;" 
 />
    <glyph glyph-name="Yhookabove" unicode="&#x1ef6;" 
 />
    <glyph glyph-name="yhookabove" unicode="&#x1ef7;" 
 />
    <glyph glyph-name="Ytilde" unicode="&#x1ef8;" 
 />
    <glyph glyph-name="ytilde" unicode="&#x1ef9;" 
 />
    <glyph glyph-name="uni1F00" unicode="&#x1f00;" 
 />
    <glyph glyph-name="uni1F01" unicode="&#x1f01;" 
 />
    <glyph glyph-name="uni1F02" unicode="&#x1f02;" 
 />
    <glyph glyph-name="uni1F03" unicode="&#x1f03;" 
 />
    <glyph glyph-name="uni1F04" unicode="&#x1f04;" 
 />
    <glyph glyph-name="uni1F05" unicode="&#x1f05;" 
 />
    <glyph glyph-name="uni1F06" unicode="&#x1f06;" 
 />
    <glyph glyph-name="uni1F07" unicode="&#x1f07;" 
 />
    <glyph glyph-name="uni1F08" unicode="&#x1f08;" 
 />
    <glyph glyph-name="uni1F09" unicode="&#x1f09;" 
 />
    <glyph glyph-name="uni1F0A" unicode="&#x1f0a;" 
 />
    <glyph glyph-name="uni1F0B" unicode="&#x1f0b;" 
 />
    <glyph glyph-name="uni1F0C" unicode="&#x1f0c;" 
 />
    <glyph glyph-name="uni1F0D" unicode="&#x1f0d;" 
 />
    <glyph glyph-name="uni1F0E" unicode="&#x1f0e;" 
 />
    <glyph glyph-name="uni1F0F" unicode="&#x1f0f;" 
 />
    <glyph glyph-name="uni1F10" unicode="&#x1f10;" 
 />
    <glyph glyph-name="uni1F11" unicode="&#x1f11;" 
 />
    <glyph glyph-name="uni1F12" unicode="&#x1f12;" 
 />
    <glyph glyph-name="uni1F13" unicode="&#x1f13;" 
 />
    <glyph glyph-name="uni1F14" unicode="&#x1f14;" 
 />
    <glyph glyph-name="uni1F15" unicode="&#x1f15;" 
 />
    <glyph glyph-name="uni1F18" unicode="&#x1f18;" 
 />
    <glyph glyph-name="uni1F19" unicode="&#x1f19;" 
 />
    <glyph glyph-name="uni1F1A" unicode="&#x1f1a;" 
 />
    <glyph glyph-name="uni1F1B" unicode="&#x1f1b;" 
 />
    <glyph glyph-name="uni1F1C" unicode="&#x1f1c;" 
 />
    <glyph glyph-name="uni1F1D" unicode="&#x1f1d;" 
 />
    <glyph glyph-name="etapsili" unicode="&#x1f20;" 
 />
    <glyph glyph-name="etadasia" unicode="&#x1f21;" 
 />
    <glyph glyph-name="uni1F22" unicode="&#x1f22;" 
 />
    <glyph glyph-name="uni1F23" unicode="&#x1f23;" 
 />
    <glyph glyph-name="uni1F24" unicode="&#x1f24;" 
 />
    <glyph glyph-name="uni1F25" unicode="&#x1f25;" 
 />
    <glyph glyph-name="uni1F26" unicode="&#x1f26;" 
 />
    <glyph glyph-name="uni1F27" unicode="&#x1f27;" 
 />
    <glyph glyph-name="Etapsili" unicode="&#x1f28;" 
 />
    <glyph glyph-name="Etadasia" unicode="&#x1f29;" 
 />
    <glyph glyph-name="uni1F2A" unicode="&#x1f2a;" 
 />
    <glyph glyph-name="uni1F2B" unicode="&#x1f2b;" 
 />
    <glyph glyph-name="uni1F2C" unicode="&#x1f2c;" 
 />
    <glyph glyph-name="uni1F2D" unicode="&#x1f2d;" 
 />
    <glyph glyph-name="uni1F2E" unicode="&#x1f2e;" 
 />
    <glyph glyph-name="uni1F2F" unicode="&#x1f2f;" 
 />
    <glyph glyph-name="uni1F30" unicode="&#x1f30;" 
 />
    <glyph glyph-name="uni1F31" unicode="&#x1f31;" 
 />
    <glyph glyph-name="uni1F32" unicode="&#x1f32;" 
 />
    <glyph glyph-name="uni1F33" unicode="&#x1f33;" 
 />
    <glyph glyph-name="uni1F34" unicode="&#x1f34;" 
 />
    <glyph glyph-name="uni1F35" unicode="&#x1f35;" 
 />
    <glyph glyph-name="uni1F36" unicode="&#x1f36;" 
 />
    <glyph glyph-name="uni1F37" unicode="&#x1f37;" 
 />
    <glyph glyph-name="uni1F38" unicode="&#x1f38;" 
 />
    <glyph glyph-name="uni1F39" unicode="&#x1f39;" 
 />
    <glyph glyph-name="uni1F3A" unicode="&#x1f3a;" 
 />
    <glyph glyph-name="uni1F3B" unicode="&#x1f3b;" 
 />
    <glyph glyph-name="uni1F3C" unicode="&#x1f3c;" 
 />
    <glyph glyph-name="uni1F3D" unicode="&#x1f3d;" 
 />
    <glyph glyph-name="uni1F3E" unicode="&#x1f3e;" 
 />
    <glyph glyph-name="uni1F3F" unicode="&#x1f3f;" 
 />
    <glyph glyph-name="uni1F40" unicode="&#x1f40;" 
 />
    <glyph glyph-name="uni1F41" unicode="&#x1f41;" 
 />
    <glyph glyph-name="uni1F42" unicode="&#x1f42;" 
 />
    <glyph glyph-name="uni1F43" unicode="&#x1f43;" 
 />
    <glyph glyph-name="uni1F44" unicode="&#x1f44;" 
 />
    <glyph glyph-name="uni1F45" unicode="&#x1f45;" 
 />
    <glyph glyph-name="uni1F48" unicode="&#x1f48;" 
 />
    <glyph glyph-name="uni1F49" unicode="&#x1f49;" 
 />
    <glyph glyph-name="uni1F4A" unicode="&#x1f4a;" 
 />
    <glyph glyph-name="uni1F4B" unicode="&#x1f4b;" 
 />
    <glyph glyph-name="uni1F4C" unicode="&#x1f4c;" 
 />
    <glyph glyph-name="uni1F4D" unicode="&#x1f4d;" 
 />
    <glyph glyph-name="uni1F50" unicode="&#x1f50;" 
 />
    <glyph glyph-name="uni1F51" unicode="&#x1f51;" 
 />
    <glyph glyph-name="uni1F52" unicode="&#x1f52;" 
 />
    <glyph glyph-name="uni1F53" unicode="&#x1f53;" 
 />
    <glyph glyph-name="uni1F54" unicode="&#x1f54;" 
 />
    <glyph glyph-name="uni1F55" unicode="&#x1f55;" 
 />
    <glyph glyph-name="uni1F56" unicode="&#x1f56;" 
 />
    <glyph glyph-name="uni1F57" unicode="&#x1f57;" 
 />
    <glyph glyph-name="uni1F59" unicode="&#x1f59;" 
 />
    <glyph glyph-name="uni1F5B" unicode="&#x1f5b;" 
 />
    <glyph glyph-name="uni1F5D" unicode="&#x1f5d;" 
 />
    <glyph glyph-name="uni1F5F" unicode="&#x1f5f;" 
 />
    <glyph glyph-name="omegapsili" unicode="&#x1f60;" 
 />
    <glyph glyph-name="omegadasia" unicode="&#x1f61;" 
 />
    <glyph glyph-name="uni1F62" unicode="&#x1f62;" 
 />
    <glyph glyph-name="uni1F63" unicode="&#x1f63;" 
 />
    <glyph glyph-name="uni1F64" unicode="&#x1f64;" 
 />
    <glyph glyph-name="uni1F65" unicode="&#x1f65;" 
 />
    <glyph glyph-name="uni1F66" unicode="&#x1f66;" 
 />
    <glyph glyph-name="uni1F67" unicode="&#x1f67;" 
 />
    <glyph glyph-name="Omegapsili" unicode="&#x1f68;" 
 />
    <glyph glyph-name="Omegadasia" unicode="&#x1f69;" 
 />
    <glyph glyph-name="uni1F6A" unicode="&#x1f6a;" 
 />
    <glyph glyph-name="uni1F6B" unicode="&#x1f6b;" 
 />
    <glyph glyph-name="uni1F6C" unicode="&#x1f6c;" 
 />
    <glyph glyph-name="uni1F6D" unicode="&#x1f6d;" 
 />
    <glyph glyph-name="uni1F6E" unicode="&#x1f6e;" 
 />
    <glyph glyph-name="uni1F6F" unicode="&#x1f6f;" 
 />
    <glyph glyph-name="uni1F70" unicode="&#x1f70;" 
 />
    <glyph glyph-name="uni1F71" unicode="&#x1f71;" 
 />
    <glyph glyph-name="uni1F72" unicode="&#x1f72;" 
 />
    <glyph glyph-name="uni1F73" unicode="&#x1f73;" 
 />
    <glyph glyph-name="uni1F74" unicode="&#x1f74;" 
 />
    <glyph glyph-name="uni1F75" unicode="&#x1f75;" 
 />
    <glyph glyph-name="uni1F76" unicode="&#x1f76;" 
 />
    <glyph glyph-name="uni1F77" unicode="&#x1f77;" 
 />
    <glyph glyph-name="uni1F78" unicode="&#x1f78;" 
 />
    <glyph glyph-name="uni1F79" unicode="&#x1f79;" 
 />
    <glyph glyph-name="uni1F7A" unicode="&#x1f7a;" 
 />
    <glyph glyph-name="uni1F7B" unicode="&#x1f7b;" 
 />
    <glyph glyph-name="uni1F7C" unicode="&#x1f7c;" 
 />
    <glyph glyph-name="uni1F7D" unicode="&#x1f7d;" 
 />
    <glyph glyph-name="uni1F80" unicode="&#x1f80;" 
 />
    <glyph glyph-name="uni1F81" unicode="&#x1f81;" 
 />
    <glyph glyph-name="uni1F82" unicode="&#x1f82;" 
 />
    <glyph glyph-name="uni1F83" unicode="&#x1f83;" 
 />
    <glyph glyph-name="uni1F84" unicode="&#x1f84;" 
 />
    <glyph glyph-name="uni1F85" unicode="&#x1f85;" 
 />
    <glyph glyph-name="uni1F86" unicode="&#x1f86;" 
 />
    <glyph glyph-name="uni1F87" unicode="&#x1f87;" 
 />
    <glyph glyph-name="uni1F88" unicode="&#x1f88;" 
 />
    <glyph glyph-name="uni1F89" unicode="&#x1f89;" 
 />
    <glyph glyph-name="uni1F8A" unicode="&#x1f8a;" 
 />
    <glyph glyph-name="uni1F8B" unicode="&#x1f8b;" 
 />
    <glyph glyph-name="uni1F8C" unicode="&#x1f8c;" 
 />
    <glyph glyph-name="uni1F8D" unicode="&#x1f8d;" 
 />
    <glyph glyph-name="uni1F8E" unicode="&#x1f8e;" 
 />
    <glyph glyph-name="uni1F8F" unicode="&#x1f8f;" 
 />
    <glyph glyph-name="uni1F90" unicode="&#x1f90;" 
 />
    <glyph glyph-name="uni1F91" unicode="&#x1f91;" 
 />
    <glyph glyph-name="uni1F92" unicode="&#x1f92;" 
 />
    <glyph glyph-name="uni1F93" unicode="&#x1f93;" 
 />
    <glyph glyph-name="uni1F94" unicode="&#x1f94;" 
 />
    <glyph glyph-name="uni1F95" unicode="&#x1f95;" 
 />
    <glyph glyph-name="uni1F96" unicode="&#x1f96;" 
 />
    <glyph glyph-name="uni1F97" unicode="&#x1f97;" 
 />
    <glyph glyph-name="uni1F98" unicode="&#x1f98;" 
 />
    <glyph glyph-name="uni1F99" unicode="&#x1f99;" 
 />
    <glyph glyph-name="uni1F9A" unicode="&#x1f9a;" 
 />
    <glyph glyph-name="uni1F9B" unicode="&#x1f9b;" 
 />
    <glyph glyph-name="uni1F9C" unicode="&#x1f9c;" 
 />
    <glyph glyph-name="uni1F9D" unicode="&#x1f9d;" 
 />
    <glyph glyph-name="uni1F9E" unicode="&#x1f9e;" 
 />
    <glyph glyph-name="uni1F9F" unicode="&#x1f9f;" 
 />
    <glyph glyph-name="uni1FA0" unicode="&#x1fa0;" 
 />
    <glyph glyph-name="uni1FA1" unicode="&#x1fa1;" 
 />
    <glyph glyph-name="uni1FA2" unicode="&#x1fa2;" 
 />
    <glyph glyph-name="uni1FA3" unicode="&#x1fa3;" 
 />
    <glyph glyph-name="uni1FA4" unicode="&#x1fa4;" 
 />
    <glyph glyph-name="uni1FA5" unicode="&#x1fa5;" 
 />
    <glyph glyph-name="uni1FA6" unicode="&#x1fa6;" 
 />
    <glyph glyph-name="uni1FA7" unicode="&#x1fa7;" 
 />
    <glyph glyph-name="uni1FA8" unicode="&#x1fa8;" 
 />
    <glyph glyph-name="uni1FA9" unicode="&#x1fa9;" 
 />
    <glyph glyph-name="uni1FAA" unicode="&#x1faa;" 
 />
    <glyph glyph-name="uni1FAB" unicode="&#x1fab;" 
 />
    <glyph glyph-name="uni1FAC" unicode="&#x1fac;" 
 />
    <glyph glyph-name="uni1FAD" unicode="&#x1fad;" 
 />
    <glyph glyph-name="uni1FAE" unicode="&#x1fae;" 
 />
    <glyph glyph-name="uni1FAF" unicode="&#x1faf;" 
 />
    <glyph glyph-name="uni1FB0" unicode="&#x1fb0;" 
 />
    <glyph glyph-name="uni1FB1" unicode="&#x1fb1;" 
 />
    <glyph glyph-name="uni1FB2" unicode="&#x1fb2;" 
 />
    <glyph glyph-name="uni1FB3" unicode="&#x1fb3;" 
 />
    <glyph glyph-name="uni1FB4" unicode="&#x1fb4;" 
 />
    <glyph glyph-name="uni1FB6" unicode="&#x1fb6;" 
 />
    <glyph glyph-name="uni1FB7" unicode="&#x1fb7;" 
 />
    <glyph glyph-name="uni1FB8" unicode="&#x1fb8;" 
 />
    <glyph glyph-name="uni1FB9" unicode="&#x1fb9;" 
 />
    <glyph glyph-name="uni1FBA" unicode="&#x1fba;" 
 />
    <glyph glyph-name="uni1FBB" unicode="&#x1fbb;" 
 />
    <glyph glyph-name="uni1FBC" unicode="&#x1fbc;" 
 />
    <glyph glyph-name="uni1FC2" unicode="&#x1fc2;" 
 />
    <glyph glyph-name="uni1FC3" unicode="&#x1fc3;" 
 />
    <glyph glyph-name="uni1FC4" unicode="&#x1fc4;" 
 />
    <glyph glyph-name="uni1FC6" unicode="&#x1fc6;" 
 />
    <glyph glyph-name="uni1FC7" unicode="&#x1fc7;" 
 />
    <glyph glyph-name="uni1FC8" unicode="&#x1fc8;" 
 />
    <glyph glyph-name="uni1FC9" unicode="&#x1fc9;" 
 />
    <glyph glyph-name="uni1FCA" unicode="&#x1fca;" 
 />
    <glyph glyph-name="uni1FCB" unicode="&#x1fcb;" 
 />
    <glyph glyph-name="uni1FCC" unicode="&#x1fcc;" 
 />
    <glyph glyph-name="uni1FCD" unicode="&#x1fcd;" 
 />
    <glyph glyph-name="uni1FCE" unicode="&#x1fce;" 
 />
    <glyph glyph-name="uni1FCF" unicode="&#x1fcf;" 
 />
    <glyph glyph-name="uni1FD0" unicode="&#x1fd0;" 
 />
    <glyph glyph-name="uni1FD1" unicode="&#x1fd1;" 
 />
    <glyph glyph-name="uni1FD2" unicode="&#x1fd2;" 
 />
    <glyph glyph-name="uni1FD3" unicode="&#x1fd3;" 
 />
    <glyph glyph-name="uni1FD6" unicode="&#x1fd6;" 
 />
    <glyph glyph-name="uni1FD7" unicode="&#x1fd7;" 
 />
    <glyph glyph-name="uni1FD8" unicode="&#x1fd8;" 
 />
    <glyph glyph-name="uni1FD9" unicode="&#x1fd9;" 
 />
    <glyph glyph-name="uni1FDA" unicode="&#x1fda;" 
 />
    <glyph glyph-name="uni1FDB" unicode="&#x1fdb;" 
 />
    <glyph glyph-name="uni1FE0" unicode="&#x1fe0;" 
 />
    <glyph glyph-name="uni1FE1" unicode="&#x1fe1;" 
 />
    <glyph glyph-name="uni1FE2" unicode="&#x1fe2;" 
 />
    <glyph glyph-name="uni1FE3" unicode="&#x1fe3;" 
 />
    <glyph glyph-name="uni1FE4" unicode="&#x1fe4;" 
 />
    <glyph glyph-name="uni1FE5" unicode="&#x1fe5;" 
 />
    <glyph glyph-name="uni1FE6" unicode="&#x1fe6;" 
 />
    <glyph glyph-name="uni1FE7" unicode="&#x1fe7;" 
 />
    <glyph glyph-name="uni1FE8" unicode="&#x1fe8;" 
 />
    <glyph glyph-name="uni1FE9" unicode="&#x1fe9;" 
 />
    <glyph glyph-name="uni1FEA" unicode="&#x1fea;" 
 />
    <glyph glyph-name="uni1FEB" unicode="&#x1feb;" 
 />
    <glyph glyph-name="uni1FEC" unicode="&#x1fec;" 
 />
    <glyph glyph-name="uni1FF2" unicode="&#x1ff2;" 
 />
    <glyph glyph-name="uni1FF3" unicode="&#x1ff3;" 
 />
    <glyph glyph-name="uni1FF4" unicode="&#x1ff4;" 
 />
    <glyph glyph-name="uni1FF6" unicode="&#x1ff6;" 
 />
    <glyph glyph-name="uni1FF7" unicode="&#x1ff7;" 
 />
    <glyph glyph-name="uni1FF8" unicode="&#x1ff8;" 
 />
    <glyph glyph-name="uni1FF9" unicode="&#x1ff9;" 
 />
    <glyph glyph-name="uni1FFA" unicode="&#x1ffa;" 
 />
    <glyph glyph-name="uni1FFB" unicode="&#x1ffb;" 
 />
    <glyph glyph-name="uni1FFC" unicode="&#x1ffc;" 
 />
    <glyph glyph-name="endash" unicode="&#x2013;" horiz-adv-x="2048" 
d="M1825 1065v-82h-1602v82h1602z" />
    <glyph glyph-name="emdash" unicode="&#x2014;" horiz-adv-x="2048" 
d="M2048 1065v-82h-2048v82h2048z" />
    <glyph glyph-name="quoteleft" unicode="&#x2018;" horiz-adv-x="2048" 
 />
    <glyph glyph-name="quoteright" unicode="&#x2019;" horiz-adv-x="2048" 
 />
    <glyph glyph-name="quotesinglbase" unicode="&#x201a;" horiz-adv-x="2048" 
 />
    <glyph glyph-name="quotedblleft" unicode="&#x201c;" horiz-adv-x="2048" 
 />
    <glyph glyph-name="quotedblright" unicode="&#x201d;" horiz-adv-x="2048" 
 />
    <glyph glyph-name="quotedblbase" unicode="&#x201e;" horiz-adv-x="2048" 
 />
    <glyph glyph-name="bullet" unicode="&#x2022;" horiz-adv-x="2048" 
d="M1022 465q-231 0 -394 163t-163 394t164 396t393 165t395 -166t166 -395t-165 -393t-396 -164z" />
    <glyph glyph-name="ellipsis" unicode="&#x2026;" horiz-adv-x="1599" 
d="M801 1825q330 0 564 -236q234 -235 234 -565t-234 -566t-564 -235q-329 0 -565 236q-236 235 -236 565t236 566t565 235z" />
    <glyph glyph-name="perthousand" unicode="&#x2030;" horiz-adv-x="0" 
 />
    <glyph glyph-name="guilsinglleft" unicode="&#x2039;" horiz-adv-x="2048" 
d="M709 1024l542 -537l-55 -55l-600 592l600 592l55 -55z" />
    <glyph glyph-name="guilsinglright" unicode="&#x203a;" horiz-adv-x="2048" 
d="M852 1616l600 -592l-600 -592l-55 55l542 537l-542 537z" />
    <glyph glyph-name="fraction" unicode="&#x2044;" horiz-adv-x="0" 
 />
    <glyph glyph-name="partialdiff" unicode="&#x2202;" horiz-adv-x="0" 
 />
    <glyph glyph-name="emptyset" unicode="&#x2205;" horiz-adv-x="0" 
 />
    <glyph glyph-name="product" unicode="&#x220f;" horiz-adv-x="0" 
 />
    <glyph glyph-name="summation" unicode="&#x2211;" horiz-adv-x="0" 
 />
    <glyph glyph-name="minus" unicode="&#x2212;" horiz-adv-x="2048" 
d="M465 1104h1118v-160h-1118v160z" />
    <glyph glyph-name="radical" unicode="&#x221a;" horiz-adv-x="0" 
 />
    <glyph glyph-name="infinity" unicode="&#x221e;" horiz-adv-x="0" 
 />
    <glyph glyph-name="integral" unicode="&#x222b;" horiz-adv-x="0" 
 />
    <glyph glyph-name="approxequal" unicode="&#x2248;" horiz-adv-x="2048" 
 />
    <glyph glyph-name="notequal" unicode="&#x2260;" horiz-adv-x="2048" 
d="M1104 944h479v-319h-479v319zM465 944h479v-319h-479v319zM1104 1423h479v-319h-479v319zM465 1423h479v-319h-479v319z" />
    <glyph glyph-name="lessequal" unicode="&#x2264;" horiz-adv-x="0" 
 />
    <glyph glyph-name="greaterequal" unicode="&#x2265;" horiz-adv-x="0" 
 />
    <glyph glyph-name="uni2C64" unicode="&#x2c64;" horiz-adv-x="2048" 
 />
    <glyph glyph-name="uni2C6D" unicode="&#x2c6d;" 
 />
    <glyph glyph-name="uni2C72" unicode="&#x2c72;" 
 />
    <glyph glyph-name="uni2C73" unicode="&#x2c73;" 
 />
    <glyph glyph-name="U.001" horiz-adv-x="2048" 
d="M944 1624h160v-913l391 417l121 -104l-592 -600l-592 600l121 104l391 -417v913z" />
    <glyph glyph-name="brevecy" 
 />
    <glyph glyph-name="Odiaeresismacron" 
 />
    <glyph glyph-name="odiaeresismacron" 
 />
  </font>
</defs>
</svg>
